<?xml version="1.0" encoding="UTF-8"?>
<svg width="87px" height="16px" viewBox="0 0 87 16" version="1.1" xmlns="http://www.w3.org/2000/svg" xmlns:xlink="http://www.w3.org/1999/xlink">
    <!-- Generator: Sketch 50.2 (55047) - http://www.bohemiancoding.com/sketch -->
    <title>Fill 10</title>
    <desc>Created with Sketch.</desc>
    <defs></defs>
    <g id="Page-1" stroke="none" stroke-width="1" fill="none" fill-rule="evenodd">
        <g id="elements" transform="translate(-17.000000, -320.000000)" fill="#1A1919">
            <path d="M18.087,335.544 C17.892,335.118 17.269,334.252 17.585,333.87 C18.662,332.803 20.32,332.723 21.771,332.196 C32.752,328.208 47.887,324.375 59.781,323.488 C65.74,322.279 73.368,322.071 78.534,321.814 C86.216,321.431 91.512,320.817 98.795,321.144 C99.302,320.521 102.782,320.432 103.315,321.479 C103.317,321.828 103.296,322.229 103.148,322.819 C103.045,323.051 102.503,322.844 102.478,323.154 C102.584,322.605 100.608,323.102 99.464,323.154 C94.508,323.38 89.153,323.235 83.39,323.488 C71.564,324.008 58.735,325.236 48.729,327.005 C46.832,327.634 44.904,327.784 43.036,328.177 C33.876,330.104 25.785,333.278 18.087,335.544 Z M96.953,329.014 C94.242,329.879 91.123,331.216 88.915,332.028 C88.307,332.07 88.072,330.873 88.078,330.856 C89.668,328.65 93.391,328.578 95.781,327.172 C96.829,327.302 97.325,327.879 96.953,329.014 Z" id="Fill-10"></path>
        </g>
    </g>
</svg>