<?xml version="1.0" encoding="UTF-8"?>
<svg width="20px" height="13px" viewBox="0 0 20 13" version="1.1" xmlns="http://www.w3.org/2000/svg" xmlns:xlink="http://www.w3.org/1999/xlink">
    <!-- Generator: Sketch 49 (51002) - http://www.bohemiancoding.com/sketch -->
    <title>graphik-medium-reg</title>
    <desc>Created with Sketch.</desc>
    <defs></defs>
    <g id="graphik-medium-reg" stroke="none" stroke-width="1" fill="none" fill-rule="evenodd">
        <path d="M0,12.8383978 L4.47679709,0 L6.55141037,0 L10.955414,12.8383978 L9.39035487,12.8383978 L8.11646952,9.13950276 L2.74795268,9.13950276 L1.4922657,12.8383978 L0,12.8383978 Z M5.44131028,1.29281768 L3.18471338,7.90055249 L7.69790719,7.90055249 L5.44131028,1.29281768 Z M15.5232029,13 C13.7579618,13 12.3566879,12.1560773 12.3566879,10.2348066 C12.3566879,8.0621547 14.6860783,7.32596685 17.1246588,7.32596685 L18.4895359,7.32596685 L18.4895359,6.64364641 C18.4895359,5.15331492 17.9071884,4.52486188 16.4513194,4.52486188 C15.1410373,4.52486188 14.4131028,5.06353591 14.2675159,6.21270718 L12.7570519,6.21270718 C12.9572338,4.07596685 14.6860783,3.2859116 16.5241128,3.2859116 C18.343949,3.2859116 20,4.02209945 20,6.64364641 L20,12.8383978 L18.4895359,12.8383978 L18.4895359,11.6533149 C17.7797998,12.5331492 16.9244768,13 15.5232029,13 Z M15.6687898,11.8149171 C17.2702457,11.8149171 18.4895359,11.0069061 18.4895359,9.55248619 L18.4895359,8.38535912 L17.1792539,8.38535912 C15.2684258,8.38535912 13.867152,8.85220994 13.867152,10.2348066 C13.867152,11.2044199 14.3403094,11.8149171 15.6687898,11.8149171 Z" id="Aa" fill="#040F23"></path>
    </g>
</svg>