<?xml version="1.0" encoding="UTF-8"?>
<svg width="19px" height="9px" viewBox="0 0 19 9" version="1.1" xmlns="http://www.w3.org/2000/svg" xmlns:xlink="http://www.w3.org/1999/xlink">
    <!-- Generator: Sketch 49 (51002) - http://www.bohemiancoding.com/sketch -->
    <title>graphik-small-upper</title>
    <desc>Created with Sketch.</desc>
    <defs></defs>
    <g id="graphik-small-upper" stroke="none" stroke-width="1" fill="none" fill-rule="evenodd">
        <path d="M4.008,8.82 C1.524,8.82 0,7.116 0,4.476 L0,4.38 C0,1.836 1.704,0 4.032,0 C5.82,0 7.332,0.948 7.512,2.808 L6.48,2.808 C6.264,1.5 5.508,0.828 4.044,0.828 C2.268,0.828 1.08,2.208 1.08,4.368 L1.08,4.464 C1.08,6.648 2.184,7.968 4.032,7.968 C5.436,7.968 6.408,7.26 6.624,5.868 L7.596,5.868 C7.296,7.848 5.928,8.82 4.008,8.82 Z M14.482286,8.82 C11.998286,8.82 10.474286,7.116 10.474286,4.476 L10.474286,4.38 C10.474286,1.836 12.178286,0 14.506286,0 C16.294286,0 17.806286,0.948 17.986286,2.808 L16.954286,2.808 C16.738286,1.5 15.982286,0.828 14.518286,0.828 C12.742286,0.828 11.554286,2.208 11.554286,4.368 L11.554286,4.464 C11.554286,6.648 12.658286,7.968 14.506286,7.968 C15.910286,7.968 16.882286,7.26 17.098286,5.868 L18.070286,5.868 C17.770286,7.848 16.402286,8.82 14.482286,8.82 Z" id="CC" fill="#040F23"></path>
    </g>
</svg>