<?xml version="1.0" encoding="UTF-8"?>
<svg width="130px" height="74px" viewBox="0 0 130 74" version="1.1" xmlns="http://www.w3.org/2000/svg" xmlns:xlink="http://www.w3.org/1999/xlink">
    <!-- Generator: Sketch 48.2 (47327) - http://www.bohemiancoding.com/sketch -->
    <title>logo-small-broken</title>
    <desc>Created with Sketch.</desc>
    <defs></defs>
    <g id="one" stroke="none" stroke-width="1" fill="none" fill-rule="evenodd" transform="translate(-31.000000, -750.000000)">
        <g id="logo-small-broken" transform="translate(32.000000, 751.000000)">
            <rect id="Rectangle-6" stroke="#040F23" stroke-width="2" x="0" y="8" width="88" height="32"></rect>
            <rect id="Rectangle-6" stroke="#040F23" stroke-width="2" x="0" y="40" width="120" height="32"></rect>
            <rect id="Rectangle-6" stroke="#040F23" stroke-width="2" fill="#3E73EE" x="96" y="0" width="32" height="32"></rect>
            <path d="M11,61.584 L11,50.144 L15.096,50.144 C17.448,50.144 18.84,51.04 18.84,53.12 L18.84,53.184 C18.84,54.32 18.328,55.216 17.032,55.616 C18.584,55.952 19.32,56.8 19.32,58.32 L19.32,58.384 C19.32,60.512 17.912,61.584 15.4,61.584 L11,61.584 Z M13.08,60.064 L15.144,60.064 C16.568,60.064 17.224,59.424 17.224,58.24 L17.224,58.176 C17.224,56.992 16.568,56.4 15,56.4 L13.08,56.4 L13.08,60.064 Z M13.08,54.96 L14.84,54.96 C16.248,54.96 16.792,54.448 16.792,53.28 L16.792,53.216 C16.792,52.128 16.168,51.664 14.808,51.664 L13.08,51.664 L13.08,54.96 Z M28.72,61.744 C25.856,61.744 24.224,60.176 24.224,57.232 L24.224,50.144 L26.368,50.144 L26.368,57.072 C26.368,59.168 27.04,60.032 28.736,60.032 C30.384,60.032 31.216,59.296 31.216,56.928 L31.216,50.144 L33.36,50.144 L33.36,57.104 C33.36,60.096 31.744,61.744 28.72,61.744 Z M38.952,61.584 L38.952,50.144 L41.096,50.144 L41.096,61.584 L38.952,61.584 Z M46.8,61.584 L46.8,50.144 L48.928,50.144 L48.928,59.888 L53.808,59.888 L53.808,61.584 L46.8,61.584 Z M60.744,59.904 L61.992,59.904 C64.552,59.904 65.784,58.432 65.784,55.904 L65.784,55.776 C65.784,53.312 64.664,51.824 61.976,51.824 L60.744,51.824 L60.744,59.904 Z M58.616,61.584 L58.616,50.144 L62.088,50.144 C66.072,50.144 68.008,52.416 68.008,55.744 L68.008,55.888 C68.008,59.216 66.072,61.584 62.056,61.584 L58.616,61.584 Z M73.04,61.584 L73.04,50.144 L80.192,50.144 L80.192,51.824 L75.168,51.824 L75.168,54.96 L79.2,54.96 L79.2,56.56 L75.168,56.56 L75.168,59.904 L80.464,59.904 L80.464,61.584 L73.04,61.584 Z M85.384,61.584 L85.384,50.144 L89.224,50.144 C91.736,50.144 93.496,51.168 93.496,53.504 L93.496,53.568 C93.496,55.36 92.376,56.272 90.952,56.64 L94.168,61.584 L91.864,61.584 L88.872,56.96 L87.512,56.96 L87.512,61.584 L85.384,61.584 Z M87.512,55.44 L89.224,55.44 C90.648,55.44 91.4,54.832 91.4,53.616 L91.4,53.552 C91.4,52.24 90.584,51.792 89.224,51.792 L87.512,51.792 L87.512,55.44 Z M102.592,61.744 C99.472,61.744 98.16,60.192 98,58.032 L100.048,58.032 C100.192,59.184 100.656,60.144 102.592,60.144 C103.856,60.144 104.752,59.44 104.752,58.384 C104.752,57.328 104.224,56.928 102.368,56.624 C99.632,56.256 98.336,55.424 98.336,53.28 C98.336,51.408 99.936,50 102.32,50 C104.784,50 106.256,51.12 106.48,53.312 L104.528,53.312 C104.32,52.112 103.632,51.6 102.32,51.6 C101.024,51.6 100.352,52.224 100.352,53.104 C100.352,54.032 100.736,54.496 102.72,54.784 C105.408,55.152 106.8,55.92 106.8,58.208 C106.8,60.192 105.12,61.744 102.592,61.744 Z" id="BUILDERS" fill="#040F23"></path>
            <path d="M11,29.584 L11,18.144 L13.848,18.144 L16.856,25.952 L19.8,18.144 L22.616,18.144 L22.616,29.584 L20.488,29.584 L20.488,20.944 L17.08,29.584 L16.392,29.584 L12.92,20.944 L12.92,29.584 L11,29.584 Z M27.36,29.584 L31.184,18.144 L33.968,18.144 L37.744,29.584 L35.536,29.584 L34.624,26.752 L30.256,26.752 L29.36,29.584 L27.36,29.584 Z M32.448,19.888 L30.752,25.2 L34.128,25.2 L32.448,19.888 Z M43.656,29.584 L43.656,19.824 L40.472,19.824 L40.472,18.144 L48.984,18.144 L48.984,19.824 L45.8,19.824 L45.8,29.584 L43.656,29.584 Z M53.696,29.584 L53.696,18.144 L55.824,18.144 L55.824,23.008 L60.96,23.008 L60.96,18.144 L63.104,18.144 L63.104,29.584 L60.96,29.584 L60.96,24.72 L55.824,24.72 L55.824,29.584 L53.696,29.584 Z M72.6,29.744 C69.48,29.744 68.168,28.192 68.008,26.032 L70.056,26.032 C70.2,27.184 70.664,28.144 72.6,28.144 C73.864,28.144 74.76,27.44 74.76,26.384 C74.76,25.328 74.232,24.928 72.376,24.624 C69.64,24.256 68.344,23.424 68.344,21.28 C68.344,19.408 69.944,18 72.328,18 C74.792,18 76.264,19.12 76.488,21.312 L74.536,21.312 C74.328,20.112 73.64,19.6 72.328,19.6 C71.032,19.6 70.36,20.224 70.36,21.104 C70.36,22.032 70.744,22.496 72.728,22.784 C75.416,23.152 76.808,23.92 76.808,26.208 C76.808,28.192 75.128,29.744 72.6,29.744 Z" id="MATHS" fill="#040F23"></path>
        </g>
    </g>
</svg>