<?xml version="1.0" encoding="UTF-8"?>
<svg width="193px" height="109px" viewBox="0 0 193 109" version="1.1" xmlns="http://www.w3.org/2000/svg" xmlns:xlink="http://www.w3.org/1999/xlink">
    <!-- Generator: Sketch 48.2 (47327) - http://www.bohemiancoding.com/sketch -->
    <title>logo-large</title>
    <desc>Created with Sketch.</desc>
    <defs></defs>
    <g id="one" stroke="none" stroke-width="1" fill="none" fill-rule="evenodd" transform="translate(-31.000000, -591.000000)">
        <g id="logo-large" transform="translate(32.000000, 592.000000)">
            <rect id="Rectangle-6" stroke="#040F23" stroke-width="2" fill="#FF2121" x="0" y="12" width="131" height="48"></rect>
            <rect id="Rectangle-6" stroke="#040F23" stroke-width="2" fill="#F8EE0B" x="0" y="59" width="178" height="48"></rect>
            <rect id="Rectangle-6" stroke="#040F23" stroke-width="2" fill="#5886F4" x="143" y="0" width="48" height="48"></rect>
            <path d="M17,91.7547684 L17,74.2207084 L23.114071,74.2207084 C26.6248852,74.2207084 28.702714,75.5940054 28.702714,78.7820163 L28.702714,78.880109 C28.702714,80.6212534 27.9384551,81.9945504 26.0039248,82.6076294 C28.3205846,83.1226158 29.4192067,84.4223433 29.4192067,86.7520436 L29.4192067,86.8501362 C29.4192067,90.1117166 27.3174948,91.7547684 23.5678497,91.7547684 L17,91.7547684 Z M20.1048017,89.4250681 L23.1857203,89.4250681 C25.3113152,89.4250681 26.2905219,88.4441417 26.2905219,86.6294278 L26.2905219,86.5313351 C26.2905219,84.7166213 25.3113152,83.8092643 22.9707724,83.8092643 L20.1048017,83.8092643 L20.1048017,89.4250681 Z M20.1048017,81.6021798 L22.7319415,81.6021798 C24.8336534,81.6021798 25.6456785,80.8174387 25.6456785,79.027248 L25.6456785,78.9291553 C25.6456785,77.2615804 24.714238,76.5504087 22.6841754,76.5504087 L20.1048017,76.5504087 L20.1048017,81.6021798 Z M43.4505219,92 C39.1754489,92 36.7393737,89.5967302 36.7393737,85.0844687 L36.7393737,74.2207084 L39.9397077,74.2207084 L39.9397077,84.8392371 C39.9397077,88.0517711 40.9427975,89.3760218 43.474405,89.3760218 C45.9343633,89.3760218 47.1762839,88.2479564 47.1762839,84.6185286 L47.1762839,74.2207084 L50.376618,74.2207084 L50.376618,84.8882834 C50.376618,89.4741144 47.9644259,92 43.4505219,92 Z M58.7237578,91.7547684 L58.7237578,74.2207084 L61.9240919,74.2207084 L61.9240919,91.7547684 L58.7237578,91.7547684 Z M70.4384134,91.7547684 L70.4384134,74.2207084 L73.6148643,74.2207084 L73.6148643,89.1553134 L80.8992067,89.1553134 L80.8992067,91.7547684 L70.4384134,91.7547684 Z M91.2525261,89.1798365 L93.1154071,89.1798365 C96.9367015,89.1798365 98.7756994,86.9237057 98.7756994,83.0490463 L98.7756994,82.852861 C98.7756994,79.0762943 97.1038831,76.7956403 93.091524,76.7956403 L91.2525261,76.7956403 L91.2525261,89.1798365 Z M88.0760752,91.7547684 L88.0760752,74.2207084 L93.2587056,74.2207084 C99.205595,74.2207084 102.095449,77.7029973 102.095449,82.8038147 L102.095449,83.0245232 C102.095449,88.1253406 99.205595,91.7547684 93.2109395,91.7547684 L88.0760752,91.7547684 Z M109.606681,91.7547684 L109.606681,74.2207084 L120.282422,74.2207084 L120.282422,76.7956403 L112.783132,76.7956403 L112.783132,81.6021798 L118.80167,81.6021798 L118.80167,84.0544959 L112.783132,84.0544959 L112.783132,89.1798365 L120.688434,89.1798365 L120.688434,91.7547684 L109.606681,91.7547684 Z M128.032484,91.7547684 L128.032484,74.2207084 L133.764426,74.2207084 C137.514071,74.2207084 140.141211,75.7901907 140.141211,79.3705722 L140.141211,79.4686649 C140.141211,82.2152589 138.469395,83.613079 136.3438,84.1771117 L141.144301,91.7547684 L137.705136,91.7547684 L133.238998,84.6675749 L131.208935,84.6675749 L131.208935,91.7547684 L128.032484,91.7547684 Z M131.208935,82.3378747 L133.764426,82.3378747 C135.890021,82.3378747 137.012526,81.4059946 137.012526,79.5422343 L137.012526,79.4441417 C137.012526,77.4332425 135.794489,76.746594 133.764426,76.746594 L131.208935,76.746594 L131.208935,82.3378747 Z M153.718747,92 C149.061545,92 147.103132,89.6212534 146.864301,86.3106267 L149.921336,86.3106267 C150.136284,88.0762943 150.828894,89.5476839 153.718747,89.5476839 C155.605511,89.5476839 156.942965,88.4686649 156.942965,86.8501362 C156.942965,85.2316076 156.154823,84.6185286 153.384384,84.1525886 C149.300376,83.5885559 147.365846,82.3133515 147.365846,79.027248 C147.365846,76.1580381 149.754154,74 153.312735,74 C156.990731,74 159.187975,75.7166213 159.522338,79.0762943 L156.608601,79.0762943 C156.298121,77.2370572 155.271148,76.4523161 153.312735,76.4523161 C151.378205,76.4523161 150.375115,77.4087193 150.375115,78.7574932 C150.375115,80.1798365 150.948309,80.8910082 153.909812,81.3324251 C157.922171,81.8964578 160,83.0735695 160,86.5803815 C160,89.6212534 157.492276,92 153.718747,92 Z" id="BUILDERS" fill="#040F23"></path>
            <path d="M17,44.7547684 L17,27.2207084 L21.2411865,27.2207084 L25.7206419,39.1880109 L30.1047897,27.2207084 L34.2983224,27.2207084 L34.2983224,44.7547684 L31.129346,44.7547684 L31.129346,31.5122616 L26.0542183,44.7547684 L25.029662,44.7547684 L19.8592268,31.5122616 L19.8592268,44.7547684 L17,44.7547684 Z M41.3629954,44.7547684 L47.0576222,27.2207084 L51.2035011,27.2207084 L56.8266472,44.7547684 L53.5385363,44.7547684 L52.1804036,40.4141689 L45.6756625,40.4141689 L44.3413567,44.7547684 L41.3629954,44.7547684 Z M48.9399465,29.893733 L46.4142961,38.0354223 L51.44177,38.0354223 L48.9399465,29.893733 Z M65.6306832,44.7547684 L65.6306832,29.7956403 L60.889132,29.7956403 L60.889132,27.2207084 L73.5650377,27.2207084 L73.5650377,29.7956403 L68.8234865,29.7956403 L68.8234865,44.7547684 L65.6306832,44.7547684 Z M80.5820569,44.7547684 L80.5820569,27.2207084 L83.7510333,27.2207084 L83.7510333,34.6757493 L91.3994651,34.6757493 L91.3994651,27.2207084 L94.5922684,27.2207084 L94.5922684,44.7547684 L91.3994651,44.7547684 L91.3994651,37.2997275 L83.7510333,37.2997275 L83.7510333,44.7547684 L80.5820569,44.7547684 Z M108.733528,45 C104.087284,45 102.133479,42.6212534 101.89521,39.3106267 L104.945052,39.3106267 C105.159494,41.0762943 105.850474,42.5476839 108.733528,42.5476839 C110.615852,42.5476839 111.950158,41.4686649 111.950158,39.8501362 C111.950158,38.2316076 111.163871,37.6185286 108.399951,37.1525886 C104.325553,36.5885559 102.395575,35.3133515 102.395575,32.027248 C102.395575,29.1580381 104.778264,27 108.328471,27 C111.997812,27 114.189886,28.7166213 114.523462,32.0762943 L111.616582,32.0762943 C111.306832,30.2370572 110.282276,29.4523161 108.328471,29.4523161 C106.398493,29.4523161 105.397763,30.4087193 105.397763,31.7574932 C105.397763,33.1798365 105.969609,33.8910082 108.924143,34.3324251 C112.927061,34.8964578 115,36.0735695 115,39.5803815 C115,42.6212534 112.498177,45 108.733528,45 Z" id="MATHS" fill="#040F23"></path>
        </g>
    </g>
</svg>