<?xml version="1.0" encoding="UTF-8"?>
<svg width="162px" height="74px" viewBox="0 0 162 74" version="1.1" xmlns="http://www.w3.org/2000/svg" xmlns:xlink="http://www.w3.org/1999/xlink">
    <!-- Generator: Sketch 48.2 (47327) - http://www.bohemiancoding.com/sketch -->
    <title>logo-big-broken</title>
    <desc>Created with Sketch.</desc>
    <defs>
        <linearGradient x1="50%" y1="0%" x2="50%" y2="100%" id="linearGradient-1">
            <stop stop-color="#FF4545" offset="0%"></stop>
            <stop stop-color="#FF2121" offset="100%"></stop>
        </linearGradient>
    </defs>
    <g id="one" stroke="none" stroke-width="1" fill="none" fill-rule="evenodd" transform="translate(-234.000000, -721.000000)">
        <g id="Group-3" transform="translate(32.000000, 46.000000)">
            <g id="logo-big-broken" transform="translate(203.000000, 676.000000)">
                <rect id="Rectangle-6" stroke="#040F23" stroke-width="2" x="0" y="8" width="88" height="32"></rect>
                <rect id="Rectangle-6" stroke="#040F23" stroke-width="2" x="32" y="40" width="120" height="32"></rect>
                <rect id="Rectangle-6" stroke="#040F23" stroke-width="2" fill="#3E73EE" x="128" y="0" width="32" height="32"></rect>
                <rect id="Rectangle-6" stroke="#040F23" stroke-width="2" fill="url(#linearGradient-1)" x="88" y="8" width="32" height="32"></rect>
                <rect id="Rectangle-6" stroke="#040F23" stroke-width="2" fill="#F8EE0B" x="0" y="40" width="32" height="32"></rect>
                <path d="M43,61.584 L43,50.144 L47.096,50.144 C49.448,50.144 50.84,51.04 50.84,53.12 L50.84,53.184 C50.84,54.32 50.328,55.216 49.032,55.616 C50.584,55.952 51.32,56.8 51.32,58.32 L51.32,58.384 C51.32,60.512 49.912,61.584 47.4,61.584 L43,61.584 Z M45.08,60.064 L47.144,60.064 C48.568,60.064 49.224,59.424 49.224,58.24 L49.224,58.176 C49.224,56.992 48.568,56.4 47,56.4 L45.08,56.4 L45.08,60.064 Z M45.08,54.96 L46.84,54.96 C48.248,54.96 48.792,54.448 48.792,53.28 L48.792,53.216 C48.792,52.128 48.168,51.664 46.808,51.664 L45.08,51.664 L45.08,54.96 Z M60.72,61.744 C57.856,61.744 56.224,60.176 56.224,57.232 L56.224,50.144 L58.368,50.144 L58.368,57.072 C58.368,59.168 59.04,60.032 60.736,60.032 C62.384,60.032 63.216,59.296 63.216,56.928 L63.216,50.144 L65.36,50.144 L65.36,57.104 C65.36,60.096 63.744,61.744 60.72,61.744 Z M70.952,61.584 L70.952,50.144 L73.096,50.144 L73.096,61.584 L70.952,61.584 Z M78.8,61.584 L78.8,50.144 L80.928,50.144 L80.928,59.888 L85.808,59.888 L85.808,61.584 L78.8,61.584 Z M92.744,59.904 L93.992,59.904 C96.552,59.904 97.784,58.432 97.784,55.904 L97.784,55.776 C97.784,53.312 96.664,51.824 93.976,51.824 L92.744,51.824 L92.744,59.904 Z M90.616,61.584 L90.616,50.144 L94.088,50.144 C98.072,50.144 100.008,52.416 100.008,55.744 L100.008,55.888 C100.008,59.216 98.072,61.584 94.056,61.584 L90.616,61.584 Z M105.04,61.584 L105.04,50.144 L112.192,50.144 L112.192,51.824 L107.168,51.824 L107.168,54.96 L111.2,54.96 L111.2,56.56 L107.168,56.56 L107.168,59.904 L112.464,59.904 L112.464,61.584 L105.04,61.584 Z M117.384,61.584 L117.384,50.144 L121.224,50.144 C123.736,50.144 125.496,51.168 125.496,53.504 L125.496,53.568 C125.496,55.36 124.376,56.272 122.952,56.64 L126.168,61.584 L123.864,61.584 L120.872,56.96 L119.512,56.96 L119.512,61.584 L117.384,61.584 Z M119.512,55.44 L121.224,55.44 C122.648,55.44 123.4,54.832 123.4,53.616 L123.4,53.552 C123.4,52.24 122.584,51.792 121.224,51.792 L119.512,51.792 L119.512,55.44 Z M134.592,61.744 C131.472,61.744 130.16,60.192 130,58.032 L132.048,58.032 C132.192,59.184 132.656,60.144 134.592,60.144 C135.856,60.144 136.752,59.44 136.752,58.384 C136.752,57.328 136.224,56.928 134.368,56.624 C131.632,56.256 130.336,55.424 130.336,53.28 C130.336,51.408 131.936,50 134.32,50 C136.784,50 138.256,51.12 138.48,53.312 L136.528,53.312 C136.32,52.112 135.632,51.6 134.32,51.6 C133.024,51.6 132.352,52.224 132.352,53.104 C132.352,54.032 132.736,54.496 134.72,54.784 C137.408,55.152 138.8,55.92 138.8,58.208 C138.8,60.192 137.12,61.744 134.592,61.744 Z" id="BUILDERS" fill="#040F23"></path>
                <path d="M11,29.584 L11,18.144 L13.848,18.144 L16.856,25.952 L19.8,18.144 L22.616,18.144 L22.616,29.584 L20.488,29.584 L20.488,20.944 L17.08,29.584 L16.392,29.584 L12.92,20.944 L12.92,29.584 L11,29.584 Z M27.36,29.584 L31.184,18.144 L33.968,18.144 L37.744,29.584 L35.536,29.584 L34.624,26.752 L30.256,26.752 L29.36,29.584 L27.36,29.584 Z M32.448,19.888 L30.752,25.2 L34.128,25.2 L32.448,19.888 Z M43.656,29.584 L43.656,19.824 L40.472,19.824 L40.472,18.144 L48.984,18.144 L48.984,19.824 L45.8,19.824 L45.8,29.584 L43.656,29.584 Z M53.696,29.584 L53.696,18.144 L55.824,18.144 L55.824,23.008 L60.96,23.008 L60.96,18.144 L63.104,18.144 L63.104,29.584 L60.96,29.584 L60.96,24.72 L55.824,24.72 L55.824,29.584 L53.696,29.584 Z M72.6,29.744 C69.48,29.744 68.168,28.192 68.008,26.032 L70.056,26.032 C70.2,27.184 70.664,28.144 72.6,28.144 C73.864,28.144 74.76,27.44 74.76,26.384 C74.76,25.328 74.232,24.928 72.376,24.624 C69.64,24.256 68.344,23.424 68.344,21.28 C68.344,19.408 69.944,18 72.328,18 C74.792,18 76.264,19.12 76.488,21.312 L74.536,21.312 C74.328,20.112 73.64,19.6 72.328,19.6 C71.032,19.6 70.36,20.224 70.36,21.104 C70.36,22.032 70.744,22.496 72.728,22.784 C75.416,23.152 76.808,23.92 76.808,26.208 C76.808,28.192 75.128,29.744 72.6,29.744 Z" id="MATHS" fill="#040F23"></path>
            </g>
        </g>
    </g>
</svg>