<?xml version="1.0" encoding="UTF-8"?>
<svg width="130px" height="63px" viewBox="0 0 130 63" version="1.1" xmlns="http://www.w3.org/2000/svg" xmlns:xlink="http://www.w3.org/1999/xlink">
    <!-- Generator: Sketch 50.2 (55047) - http://www.bohemiancoding.com/sketch -->
    <title>Fill 6</title>
    <desc>Created with Sketch.</desc>
    <defs></defs>
    <g id="Page-1" stroke="none" stroke-width="1" fill="none" fill-rule="evenodd">
        <path d="M110.981877,52.0695157 C91.3898767,59.3395157 26.1958767,73.0915157 4.39687667,50.0945157 C-0.883123333,44.5245157 -1.07912333,35.9865157 2.06487667,29.7705157 C7.40487667,19.2135157 20.9688767,13.8015157 32.7178767,10.4465157 C47.0348767,6.35751567 80.8868767,-2.03048433 95.0228767,0.450515672 C97.0518767,0.806515672 100.334877,2.68251567 101.019877,3.78251567 C101.501877,4.55551567 101.901877,7.90651567 99.6868767,8.44751567 C99.1498767,8.57851567 100.155877,8.35551567 99.6868767,8.11351567 C79.2598767,-2.39448433 25.5428767,11.0925157 8.06187667,27.1055157 C5.24887667,29.6825157 3.57787667,33.1905157 3.06487667,38.1005157 C2.28587667,45.5475157 10.0798767,50.3165157 16.0588767,52.7605157 C29.3678767,58.1995157 42.1988767,59.3495157 55.9918767,58.8545157 C74.0318767,58.2075157 92.1268767,55.0715157 106.350877,50.0945157 C112.723877,47.8655157 119.426877,46.5005157 123.082877,40.0605157 C133.358877,21.9565157 101.991877,23.2595157 82.6948767,17.4425157 C80.8878767,16.8985157 102.342877,17.4015157 112.647877,20.2775157 C138.479877,27.4875157 131.062877,44.6185157 110.981877,52.0695157" id="Fill-6" fill="#1A1919"></path>
    </g>
</svg>