<?xml version="1.0" encoding="UTF-8"?>
<svg width="108px" height="55px" viewBox="0 0 108 55" version="1.1" xmlns="http://www.w3.org/2000/svg" xmlns:xlink="http://www.w3.org/1999/xlink">
    <!-- Generator: Sketch 50.2 (55047) - http://www.bohemiancoding.com/sketch -->
    <title>Fill 22</title>
    <desc>Created with Sketch.</desc>
    <defs></defs>
    <g id="Page-1" stroke="none" stroke-width="1" fill="none" fill-rule="evenodd">
        <g id="elements" transform="translate(-579.000000, -8.000000)" fill="#1A1919">
            <path d="M680.258,43.018 C688.868,24.887 625.668,30.038 626.836,29.022 C628.984,27.153 634.025,26.518 637.887,26.177 C646.228,25.438 656.063,26.007 664.573,26.875 C672.648,27.697 688.145,34.299 686.487,41.223 C681.516,61.975 596.796,70.506 581.377,54.645 C580.589,53.835 579.828,51.412 579.534,49.991 C578.35,44.287 580.584,38.682 584.326,34.737 C592.948,25.647 604.642,18.742 616.769,14.82 C623.021,12.799 651.903,8.776 665.323,8.477 C671.423,8.341 671.633,11.023 669.808,11.412 C658.069,13.917 628.257,16.283 627.147,16.591 C623.465,17.612 617.056,19.314 613.451,20.674 C606.544,23.279 599.239,27.75 593.174,32.523 C588.228,36.415 577.023,50.332 589.006,55.229 C609.547,63.622 646.722,57.083 666.541,50.406 C671.63,48.692 678.17,47.416 680.258,43.018" id="Fill-22"></path>
        </g>
    </g>
</svg>