<?xml version="1.0" encoding="UTF-8"?>
<svg width="95px" height="44px" viewBox="0 0 95 44" version="1.1" xmlns="http://www.w3.org/2000/svg" xmlns:xlink="http://www.w3.org/1999/xlink">
    <!-- Generator: Sketch 50.2 (55047) - http://www.bohemiancoding.com/sketch -->
    <title>Fill 4</title>
    <desc>Created with Sketch.</desc>
    <defs></defs>
    <g id="Page-1" stroke="none" stroke-width="1" fill="none" fill-rule="evenodd">
        <g id="elements" transform="translate(-444.000000, 0.000000)" fill="#1A1919">
            <path d="M485.07,3.03904247 C483.723,4.7308406 479.45,3.06847668 476.31,3.74211872 C464.125,6.35574279 440.047,19.7991493 450.03,31.4015798 C458.744,41.528286 485.644,42.7083303 503.641,40.0739685 C513.108,38.6885537 527.64,32.6699267 532.023,26.4787082 C533.141,24.8999642 535.548,21.6809319 535.177,18.9783362 C533.941,9.98819191 515.442,7.42407083 503.291,6.78922843 C497.842,6.50492072 477.745,10.249755 481.917,7.49230468 C488.95,2.84303739 505.169,3.54410676 518.017,5.37638635 C529.966,7.07955678 537.824,12.5730507 538.33,20.3844887 C538.407,21.5678778 537.977,23.3178754 536.929,25.3066914 C533.16,32.4565287 519.917,39.4979945 506.795,42.1838662 C493.3,44.9459992 478.193,44.3058052 465.798,41.9497304 C455.04,39.9040528 444.964,35.1082834 444.074,26.7135129 C443.01,16.6717645 462.433,2.32191808 477.361,0.92914477 C479.919,0.690995252 486.692,1.00139238 485.07,3.03904247" id="Fill-4"></path>
        </g>
    </g>
</svg>