<?xml version="1.0" encoding="UTF-8"?>
<svg width="386px" height="25px" viewBox="0 0 386 25" version="1.1" xmlns="http://www.w3.org/2000/svg" xmlns:xlink="http://www.w3.org/1999/xlink">
    <!-- Generator: Sketch 50.2 (55047) - http://www.bohemiancoding.com/sketch -->
    <title>Fill 14</title>
    <desc>Created with Sketch.</desc>
    <defs></defs>
    <g id="Page-1" stroke="none" stroke-width="1" fill="none" fill-rule="evenodd">
        <path d="M3.93934519,22.8997108 C1.57184317,22.2797108 -1.18021073,21.5247108 0.535225055,20.2517108 C5.12309621,19.9947108 8.82148213,19.4717108 11.433091,18.6227108 C13.5698619,18.9427108 13.27894,19.0377108 16.1981904,18.8267108 C87.5509562,10.6557108 154.208845,6.83871084 219.147954,4.36571084 C245.026624,3.38071084 277.730254,2.14171084 304.956527,1.71871084 C321.819963,1.45671084 337.339139,1.04771084 351.269949,0.903710838 C352.336663,0.831710838 350.671386,0.545710838 351.948767,0.496710838 C360.014325,0.699710838 379.452586,-1.19528916 386,1.31171084 C384.846344,1.50871084 384.251125,1.87471084 384.639021,2.53371084 C378.456095,3.00271084 362.127688,3.14671084 346.501506,3.34771084 C336.543284,3.47671084 330.945546,3.80371084 319.940674,3.95871084 C313.012053,4.05671084 306.461295,4.51371084 300.191427,5.18071084 C298.599717,4.90971084 296.352596,4.83471084 294.744166,4.56971084 C251.83152,5.77971084 209.253267,7.05671084 170.794735,9.05071084 C163.729012,9.41671084 157.335419,10.2097108 150.363326,10.6797108 C148.795023,10.7857108 147.16653,10.6177108 145.594883,10.6797108 C131.510252,11.2367108 114.951114,12.8747108 102.010107,13.7347108 C95.5095082,14.1667108 81.6589526,15.1767108 76.1280933,15.7717108 C51.3228249,18.4407108 29.8313906,20.4987108 3.93934519,22.8997108 Z M87.7081209,24.3257108 C86.6347195,23.8727108 84.3708793,23.2937108 85.66498,22.2887108 C155.054859,12.7267108 233.984969,9.42271084 307.681829,7.62471084 C328.464351,7.11771084 353.232836,6.94471084 375.105478,6.60671084 C377.462948,7.75471084 376.356108,8.10971084 376.466457,9.05071084 C354.550344,9.66671084 334.476736,9.93871084 309.042809,10.2727108 C283.461749,10.6077108 232.914912,11.4967108 208.93225,14.3457108 C193.807657,14.8577108 179.485607,15.7517108 166.026292,16.7897108 C164.748911,16.8887108 163.852737,17.2897108 162.622171,17.4007108 C159.171236,17.7117108 155.088298,17.5087108 151.724305,17.8077108 C148.109518,18.1297108 145.083262,18.9547108 141.508601,19.2337108 C139.639345,19.3797108 138.211487,19.1027108 136.743502,19.2337108 C120.682609,20.6647108 104.25054,23.5897108 87.7081209,24.3257108 Z" id="Fill-14" fill="#1A1919"></path>
    </g>
</svg>