<?xml version="1.0" encoding="UTF-8"?>
<svg width="158px" height="16px" viewBox="0 0 158 16" version="1.1" xmlns="http://www.w3.org/2000/svg" xmlns:xlink="http://www.w3.org/1999/xlink">
    <!-- Generator: Sketch 50.2 (55047) - http://www.bohemiancoding.com/sketch -->
    <title>Fill 15</title>
    <desc>Created with Sketch.</desc>
    <defs></defs>
    <g id="Page-1" stroke="none" stroke-width="1" fill="none" fill-rule="evenodd">
        <g id="elements" transform="translate(-179.000000, -411.000000)" fill="#1A1919">
            <path d="M264.664558,418.56322 C260.065944,419.409016 237.876379,425.604355 230.517521,425.275359 C224.60425,425.010907 226.736758,422.353393 228.982259,421.535834 C230.487031,418.786883 235.204018,416.595969 237.0388,413.672659 C229.862883,414.725086 196.492445,421.976886 193.683776,423.645172 C191.66426,424.84372 186.776888,425.563118 184.090178,426.713706 C183.53239,426.766149 182.108327,426.601651 182.172894,426.809178 C180.92639,426.609719 180.619696,426.174494 179.87,425.850429 C191.90818,423.588696 222.636746,412.258067 238.574063,411.947 C239.795457,412.123152 238.319381,412.27734 240.109325,412.138839 C243.17985,413.039319 241.058103,414.657404 239.725509,415.302846 C237.058529,418.465955 233.68131,420.802542 230.517521,423.932931 C244.273904,422.457829 252.918723,418.500917 266.19982,416.645273 C272.873549,417.308643 269.087405,419.76625 268.447115,421.532697 C274.624035,421.573485 283.302932,419.111396 288.070137,418.27546 C292.505539,417.497345 296.440546,419.120361 298.045756,420.289326 C298.815181,420.256606 299.245629,420.309048 299.19541,420.480718 C309.14592,419.717394 317.267028,417.775244 324.903883,416.837113 C325.248241,416.635412 325.967447,416.527839 326.437352,416.357514 C329.529399,416.719678 331.113087,417.913744 335.263318,417.508551 C336.029156,417.61209 334.999669,417.914641 336.79858,417.89223 C337.295388,418.129788 335.941273,418.357485 336.79858,418.37138 C334.156709,418.912385 329.446897,418.62866 327.588799,418.083621 C327.059707,417.928536 327.640811,417.686944 325.287699,418.083621 C322.798278,418.503158 318.750278,419.273653 317.229364,419.521969 C310.485687,420.623701 304.267515,422.087597 296.126678,421.343995 C295.032624,420.62639 292.980825,420.148584 291.9065,419.426049 C280.537307,420.238677 259.276791,426.837864 264.664558,418.56322" id="Fill-15"></path>
        </g>
    </g>
</svg>