<?xml version="1.0" encoding="UTF-8"?>
<svg width="147px" height="10px" viewBox="0 0 147 10" version="1.1" xmlns="http://www.w3.org/2000/svg" xmlns:xlink="http://www.w3.org/1999/xlink">
    <!-- Generator: Sketch 50.2 (55047) - http://www.bohemiancoding.com/sketch -->
    <title>Fill 19</title>
    <desc>Created with Sketch.</desc>
    <defs></defs>
    <g id="Page-1" stroke="none" stroke-width="1" fill="none" fill-rule="evenodd">
        <g id="elements" transform="translate(-1.000000, -418.000000)" fill="#1A1919">
            <path d="M145.897543,421.861324 C144.456543,422.173979 142.335543,422.266489 139.706543,422.220234 C139.511543,421.915926 138.547543,422.093642 139.293543,421.789334 C128.493543,421.824112 60.3705432,422.744339 21.4085432,429.054123 C19.1825432,429.414771 17.6835432,428.616615 17.5355432,428.535929 C17.2995432,428.121027 21.5415432,427.545103 23.3135432,427.244272 C27.3635432,426.55671 31.7105432,426.116072 36.1085432,425.521715 C41.4105432,425.219146 47.1835432,424.381342 52.6185432,424.014434 C54.7475432,423.870453 56.5225432,423.791854 59.0155432,423.583881 C69.4035432,422.716169 80.8565432,421.609879 91.6225432,420.928229 C99.3285432,420.440293 107.059543,420.104684 114.735543,419.708214 C124.085543,419.225147 132.385543,418.965007 142.595543,418.200933 C100.293543,417.484505 59.6505432,419.028999 18.5505432,422.870236 C17.8145432,422.925533 11.2325432,423.305657 10.5185432,423.368257 C7.59854321,423.119247 1.40454321,424.150416 1.43854321,422.794072 C14.3145432,422.016782 27.1055432,420.755382 39.6175432,419.995133 C66.4745432,418.364042 95.9405432,417.061952 123.402543,417.339481 C124.213543,417.046649 128.013543,417.269925 131.038543,417.267838 C134.922543,417.265056 139.049543,417.130812 142.182543,417.267838 C142.821543,417.29566 143.263543,417.455292 143.833543,417.483114 C145.345543,417.556844 146.586543,417.424687 147.548543,417.770033 C147.289543,418.051735 147.390543,417.992613 147.754543,418.0573 C145.970543,418.842936 141.087543,418.719126 137.023543,419.134029 C136.597543,419.114553 136.974543,418.816157 136.404543,418.846762 C135.680543,418.866585 136.922543,419.114205 136.197543,419.134029 C121.408543,419.86089 108.503543,420.626007 92.8605432,421.574057 C105.919543,421.654047 130.617543,420.807897 142.389543,420.999872 C143.147543,421.281226 146.019543,420.864933 145.897543,421.861324 Z" id="Fill-19" transform="translate(74.596474, 423.167775) rotate(2.000000) translate(-74.596474, -423.167775) "></path>
        </g>
    </g>
</svg>