<?xml version="1.0" encoding="UTF-8"?>
<svg width="102px" height="7px" viewBox="0 0 102 7" version="1.1" xmlns="http://www.w3.org/2000/svg" xmlns:xlink="http://www.w3.org/1999/xlink">
    <!-- Generator: Sketch 50.2 (55047) - http://www.bohemiancoding.com/sketch -->
    <title>Fill 11</title>
    <desc>Created with Sketch.</desc>
    <defs></defs>
    <g id="Page-1" stroke="none" stroke-width="1" fill="none" fill-rule="evenodd">
        <g id="elements" transform="translate(-15.000000, -226.000000)" fill="#1A1919">
            <path d="M113.284999,226.899702 C113.242999,226.959494 112.951999,226.937154 112.949999,227.009759 C114.863999,226.847466 114.715999,226.992018 115.963999,227.229872 C116.105999,227.488753 115.074999,227.377382 114.958999,227.394794 C114.728999,227.430275 114.854999,227.540003 115.126999,227.50485 C114.415999,227.596181 113.159999,227.642504 112.279999,227.669772 C106.644999,227.845206 99.6129988,228.406989 92.3549988,229.21024 C89.7999988,229.493103 87.0239988,229.75034 84.1499988,229.98031 C81.0929988,230.225063 78.0349988,230.708657 75.4429988,230.805573 C74.2719988,230.849267 73.2279988,230.778305 72.5969988,230.640323 C72.4489988,230.377172 71.7619988,230.291098 71.9269988,229.925446 C68.9399988,230.264487 65.9879988,230.614698 63.7219988,231.190608 C61.5279988,231.41335 58.0429988,232.011599 55.3499988,232.510962 C53.9779988,232.764914 51.1509988,233.323741 49.8249988,232.510962 C49.7229988,232.288549 49.9219988,231.927496 50.4939988,231.630507 C53.0189988,230.319679 56.9899988,228.828162 59.7039988,227.614907 C51.9809988,228.415859 43.9349988,229.780236 36.9309988,231.245472 C30.5549988,232.781341 23.5419988,234.107937 18.5129988,236.086334 C17.4879988,236.133642 16.6639988,235.922727 16.0009988,235.701299 C24.3129988,232.787911 35.8109988,230.211922 46.8099988,228.605091 C50.3029988,228.03181 54.4909988,227.263054 58.3639988,227.064623 C58.6089988,226.859293 60.3079988,226.734452 61.7129988,226.734781 C62.3529988,226.854365 62.5489988,227.120144 62.8849988,227.339929 C59.4899988,229.059774 55.7909988,230.364359 52.5039988,232.070734 C59.7259988,231.05624 65.8729988,229.615315 73.4339988,228.990126 C74.1579988,229.100512 74.6709988,229.280545 75.1079988,229.485218 C74.8769988,229.647839 74.7569988,229.846927 74.4379988,229.98031 C83.0199988,229.340337 91.5969988,228.589322 99.0519988,227.835021 C99.2649988,227.813338 99.0959988,227.771615 99.0519988,227.779829 C101.096999,227.380667 103.748999,227.320546 106.419999,227.175008 C108.393999,227.067251 110.760999,226.976577 113.284999,226.899702" id="Fill-11" transform="translate(65.989198, 231.413909) rotate(4.000000) translate(-65.989198, -231.413909) "></path>
        </g>
    </g>
</svg>