<?xml version="1.0" encoding="UTF-8"?>
<svg width="131px" height="25px" viewBox="0 0 131 25" version="1.1" xmlns="http://www.w3.org/2000/svg" xmlns:xlink="http://www.w3.org/1999/xlink">
    <!-- Generator: Sketch 50.2 (55047) - http://www.bohemiancoding.com/sketch -->
    <title>Fill 4</title>
    <desc>Created with Sketch.</desc>
    <defs></defs>
    <g id="Page-1" stroke="none" stroke-width="1" fill="none" fill-rule="evenodd">
        <g id="Group" transform="translate(-173.000000, -155.000000)" fill="#0A0B09">
            <path d="M222.781305,157.943288 C206.301947,158.43554 190.911011,161.912802 181.331585,165.731064 C173.530573,168.840108 169.686137,173.269603 179.653437,176.344042 C188.255263,178.998161 202.782059,179.6405 214.57131,179.905679 C226.406737,180.172413 238.264592,179.851632 249.91136,179.217847 C269.608486,178.147023 305.93537,175.305102 303.919482,167.560097 C302.763777,163.12127 289.771325,158.93868 276.838242,157.029938 C261.254688,154.730038 243.15787,155.36149 227.045278,156.770981 C210.687296,158.201468 195.247545,160.728441 185.381831,164.93475 C177.398756,168.338524 171.415737,173.775853 182.251136,177.21151 C191.823966,180.247067 209.299394,180.162692 221.992365,179.575955 C237.370108,178.864794 252.676609,177.903619 267.191531,176.211064 C280.507211,174.657708 294.524758,172.281987 300.755805,168.290699 C305.182051,165.45422 304.350893,162.430717 295.625053,160.469873 C286.684167,158.460036 273.901484,158.018331 263.047615,157.790091 C251.11456,157.539299 239.498136,157.76054 227.77485,158.418043 C224.973979,158.575517 222.17047,158.731825 219.366961,158.882689 C218.116266,158.950345 218.650581,159.510253 219.889403,159.442986 C227.697011,159.021889 235.414908,158.492309 243.347849,158.350388 C248.919247,158.251237 254.513073,158.24696 260.089747,158.320448 C271.66923,158.473645 284.970398,158.906796 294.630302,160.971068 C306.236171,163.45216 301.088268,167.992081 293.121024,170.664864 C282.244727,174.314375 264.888036,176.078086 249.468075,177.32077 C234.839693,178.499688 218.508097,179.642444 203.282073,179.20696 C195.904556,178.995828 188.282968,178.272225 183.129789,176.637994 C177.177114,174.750637 177.747051,171.993479 179.905423,169.68658 C185.201087,164.032287 201.419224,160.238522 219.245585,158.170751 C236.396466,156.1823 256.489382,155.099811 274.016262,157.283452 C282.750019,158.370996 289.79903,160.310455 295.092056,162.597912 C299.304576,164.419557 302.528942,166.537876 301.959005,168.784118 C300.985363,172.622987 287.593163,174.945438 276.916081,176.309048 C264.442113,177.901286 250.692384,178.748536 237.228943,179.192185 C224.666583,179.605895 211.641149,179.520742 199.326816,178.638887 C192.457229,178.146246 185.530912,177.316882 180.567711,175.786078 C175.008187,174.070582 174.595247,171.618652 176.871036,169.452119 C179.913339,166.556928 187.587698,164.135715 195.376837,162.260023 C203.086817,160.402995 212.738805,158.823977 222.781305,158.523804 C224.033319,158.486477 224.045193,157.905572 222.781305,157.943288" id="Fill-4"></path>
        </g>
    </g>
</svg>