<?xml version="1.0" encoding="UTF-8"?>
<svg width="375px" height="667px" viewBox="0 0 375 667" version="1.1" xmlns="http://www.w3.org/2000/svg" xmlns:xlink="http://www.w3.org/1999/xlink" style="background: #FFFFFF;">
    <!-- Generator: Sketch 48.2 (47327) - http://www.bohemiancoding.com/sketch -->
    <title>two</title>
    <desc>Created with Sketch.</desc>
    <defs></defs>
    <g id="sign-in" stroke="none" stroke-width="1" fill="none" fill-rule="evenodd">
        <g id="two">
            <rect id="Rectangle-6" stroke-opacity="0.9" stroke="#112730" stroke-width="2" x="107" y="306" width="88" height="32"></rect>
            <rect id="Rectangle-6" stroke-opacity="0.9" stroke="#112730" stroke-width="2" x="139" y="338" width="120" height="32"></rect>
            <rect id="Rectangle-6" stroke-opacity="0.9" stroke="#112730" stroke-width="2" fill="#3E73EE" x="235" y="298" width="32" height="32"></rect>
            <rect id="Rectangle-6" stroke-opacity="0.9" stroke="#112730" stroke-width="2" fill="#FF2121" x="195" y="306" width="32" height="32"></rect>
            <rect id="Rectangle-6" stroke-opacity="0.9" stroke="#112730" stroke-width="2" fill="#F8EE0B" x="107" y="338" width="32" height="32"></rect>
            <path d="M150,359.584 L150,348.144 L154.096,348.144 C156.448,348.144 157.84,349.04 157.84,351.12 L157.84,351.184 C157.84,352.32 157.328,353.216 156.032,353.616 C157.584,353.952 158.32,354.8 158.32,356.32 L158.32,356.384 C158.32,358.512 156.912,359.584 154.4,359.584 L150,359.584 Z M152.08,358.064 L154.144,358.064 C155.568,358.064 156.224,357.424 156.224,356.24 L156.224,356.176 C156.224,354.992 155.568,354.4 154,354.4 L152.08,354.4 L152.08,358.064 Z M152.08,352.96 L153.84,352.96 C155.248,352.96 155.792,352.448 155.792,351.28 L155.792,351.216 C155.792,350.128 155.168,349.664 153.808,349.664 L152.08,349.664 L152.08,352.96 Z M167.72,359.744 C164.856,359.744 163.224,358.176 163.224,355.232 L163.224,348.144 L165.368,348.144 L165.368,355.072 C165.368,357.168 166.04,358.032 167.736,358.032 C169.384,358.032 170.216,357.296 170.216,354.928 L170.216,348.144 L172.36,348.144 L172.36,355.104 C172.36,358.096 170.744,359.744 167.72,359.744 Z M177.952,359.584 L177.952,348.144 L180.096,348.144 L180.096,359.584 L177.952,359.584 Z M185.8,359.584 L185.8,348.144 L187.928,348.144 L187.928,357.888 L192.808,357.888 L192.808,359.584 L185.8,359.584 Z M199.744,357.904 L200.992,357.904 C203.552,357.904 204.784,356.432 204.784,353.904 L204.784,353.776 C204.784,351.312 203.664,349.824 200.976,349.824 L199.744,349.824 L199.744,357.904 Z M197.616,359.584 L197.616,348.144 L201.088,348.144 C205.072,348.144 207.008,350.416 207.008,353.744 L207.008,353.888 C207.008,357.216 205.072,359.584 201.056,359.584 L197.616,359.584 Z M212.04,359.584 L212.04,348.144 L219.192,348.144 L219.192,349.824 L214.168,349.824 L214.168,352.96 L218.2,352.96 L218.2,354.56 L214.168,354.56 L214.168,357.904 L219.464,357.904 L219.464,359.584 L212.04,359.584 Z M224.384,359.584 L224.384,348.144 L228.224,348.144 C230.736,348.144 232.496,349.168 232.496,351.504 L232.496,351.568 C232.496,353.36 231.376,354.272 229.952,354.64 L233.168,359.584 L230.864,359.584 L227.872,354.96 L226.512,354.96 L226.512,359.584 L224.384,359.584 Z M226.512,353.44 L228.224,353.44 C229.648,353.44 230.4,352.832 230.4,351.616 L230.4,351.552 C230.4,350.24 229.584,349.792 228.224,349.792 L226.512,349.792 L226.512,353.44 Z M241.592,359.744 C238.472,359.744 237.16,358.192 237,356.032 L239.048,356.032 C239.192,357.184 239.656,358.144 241.592,358.144 C242.856,358.144 243.752,357.44 243.752,356.384 C243.752,355.328 243.224,354.928 241.368,354.624 C238.632,354.256 237.336,353.424 237.336,351.28 C237.336,349.408 238.936,348 241.32,348 C243.784,348 245.256,349.12 245.48,351.312 L243.528,351.312 C243.32,350.112 242.632,349.6 241.32,349.6 C240.024,349.6 239.352,350.224 239.352,351.104 C239.352,352.032 239.736,352.496 241.72,352.784 C244.408,353.152 245.8,353.92 245.8,356.208 C245.8,358.192 244.12,359.744 241.592,359.744 Z" id="BUILDERS" fill-opacity="0.9" fill="#112730"></path>
            <path d="M118,327.584 L118,316.144 L120.848,316.144 L123.856,323.952 L126.8,316.144 L129.616,316.144 L129.616,327.584 L127.488,327.584 L127.488,318.944 L124.08,327.584 L123.392,327.584 L119.92,318.944 L119.92,327.584 L118,327.584 Z M134.36,327.584 L138.184,316.144 L140.968,316.144 L144.744,327.584 L142.536,327.584 L141.624,324.752 L137.256,324.752 L136.36,327.584 L134.36,327.584 Z M139.448,317.888 L137.752,323.2 L141.128,323.2 L139.448,317.888 Z M150.656,327.584 L150.656,317.824 L147.472,317.824 L147.472,316.144 L155.984,316.144 L155.984,317.824 L152.8,317.824 L152.8,327.584 L150.656,327.584 Z M160.696,327.584 L160.696,316.144 L162.824,316.144 L162.824,321.008 L167.96,321.008 L167.96,316.144 L170.104,316.144 L170.104,327.584 L167.96,327.584 L167.96,322.72 L162.824,322.72 L162.824,327.584 L160.696,327.584 Z M179.6,327.744 C176.48,327.744 175.168,326.192 175.008,324.032 L177.056,324.032 C177.2,325.184 177.664,326.144 179.6,326.144 C180.864,326.144 181.76,325.44 181.76,324.384 C181.76,323.328 181.232,322.928 179.376,322.624 C176.64,322.256 175.344,321.424 175.344,319.28 C175.344,317.408 176.944,316 179.328,316 C181.792,316 183.264,317.12 183.488,319.312 L181.536,319.312 C181.328,318.112 180.64,317.6 179.328,317.6 C178.032,317.6 177.36,318.224 177.36,319.104 C177.36,320.032 177.744,320.496 179.728,320.784 C182.416,321.152 183.808,321.92 183.808,324.208 C183.808,326.192 182.128,327.744 179.6,327.744 Z" id="MATHS" fill-opacity="0.9" fill="#112730"></path>
        </g>
    </g>
</svg>