<?xml version="1.0" encoding="UTF-8"?>
<svg width="350px" height="200px" viewBox="0 0 350 200" version="1.1" xmlns="http://www.w3.org/2000/svg" xmlns:xlink="http://www.w3.org/1999/xlink">
    <!-- Generator: Sketch 51.1 (57501) - http://www.bohemiancoding.com/sketch -->
    <title>mayhem-biz-card-front-one</title>
    <desc>Created with Sketch.</desc>
    <defs></defs>
    <g id="mayhem-biz-card-front-one" stroke="none" stroke-width="1" fill="none" fill-rule="evenodd">
        <rect fill="#FFE3E9" x="0" y="0" width="350" height="200"></rect>
        <g id="logo-stack" transform="translate(19.000000, 20.000000)" fill="#294C85">
            <path d="M4.1339391,161.754747 L0.0134192161,122.550619 L21.0917406,120.335198 L30.2500061,139.526194 C31.1147142,141.33343 31.8889855,142.815208 32.2125282,144.288533 L32.3237594,144.276842 C32.3339105,142.768445 32.7773794,141.10285 33.2416427,139.100107 L37.9432746,118.564031 L59.5777523,116.290156 L63.6982722,155.494284 L50.6842162,156.862116 L48.420832,135.327454 C48.1596723,132.842685 48.1301623,129.886953 48.3289184,126.963056 L48.0508403,126.992283 C47.8622353,128.407783 46.9777173,132.296989 46.1995908,135.058472 L39.9504008,157.990285 L26.7138824,159.3815 L16.3456079,138.307907 C14.9141002,135.387876 13.7108586,132.49968 13.0129973,130.674909 L12.7905348,130.69829 C13.5638422,133.240884 13.9386531,136.271978 14.2172234,138.922398 L16.4806076,160.45706 L4.1339391,161.754747 Z M104.25477,164.718291 L100.791,157.394167 L82.1945048,158.368768 L79.5152888,166.014832 L64.1578227,166.819683 L80.5236946,126.487811 L99.0643445,125.516136 L119.556391,163.916367 L104.25477,164.718291 Z M85.4186816,149.644744 L97.0903558,149.033057 L93.9406811,142.359641 C92.1264808,138.729692 91.1167253,136.558714 90.5362978,134.031651 L90.3687618,134.040431 C89.9998186,136.617248 89.2225236,138.881881 87.85354,142.678654 L85.4186816,149.644744 Z M118.046617,151.371077 L119.178942,138.428546 L102.262639,110.419504 L118.084044,111.803697 L126.078467,126.938047 C127.011127,128.468711 127.190413,128.985996 127.318828,129.443097 L127.430247,129.452845 C127.636086,129.024987 127.902474,128.546693 129.086762,127.201239 L140.089166,113.728896 L154.963514,115.030233 L133.440489,139.67627 L132.308165,152.6188 L118.046617,151.371077 Z M198.617798,127.686717 L195.867993,167.010766 L181.642627,166.016032 L182.699947,150.895658 L163.621221,149.561543 L162.563902,164.681918 L148.28275,163.683282 L151.032556,124.359232 L165.313707,125.357868 L164.279625,140.145926 L183.358351,141.48004 L184.392433,126.691982 L198.617798,127.686717 Z M218.519993,143.343675 L245.82122,139.506738 L247.150275,148.963453 L205.672346,154.792796 L200.186132,115.756354 L241.276416,109.981491 L242.605471,119.438207 L215.691889,123.220664 L216.472322,128.773735 L242.444483,125.123586 L243.665359,133.810569 L217.693198,137.460718 L218.519993,143.343675 Z M250.763834,157.675374 L252.139574,118.279313 L273.32109,119.018988 L279.719358,139.297802 C280.324132,141.207794 280.884644,142.78291 280.999991,144.286925 L281.111767,144.290828 C281.331747,142.798523 282.002707,141.210856 282.74118,139.292216 L290.255125,119.610337 L311.99552,120.369528 L310.619779,159.76559 L297.542009,159.308904 L298.297698,137.668814 C298.384893,135.171881 298.767028,132.240806 299.370778,129.373026 L299.091339,129.363267 C298.70757,130.738743 297.290387,134.466999 296.135509,137.093313 L286.755644,158.932236 L273.454323,158.467744 L266.119829,136.156253 C265.108642,133.065412 264.31907,130.037865 263.881959,128.133729 L263.658407,128.125922 C264.070328,130.751395 264.019645,133.805154 263.926637,136.46855 L263.170948,158.10864 L250.763834,157.675374 Z" id="MAYHEM"></path>
            <path d="M2,97.3052632 L2,57.6947368 L23.345627,57.6947368 L30.4983833,77.8347368 C31.1742343,79.7315789 31.7937644,81.2936842 31.9627271,82.8 L32.075369,82.8 C32.2443317,81.2936842 32.8638618,79.6757895 33.5397128,77.7231579 L40.4108645,57.6947368 L62.3197007,57.6947368 L62.3197007,97.3052632 L49.1406064,97.3052632 L49.1406064,75.5473684 C49.1406064,73.0368421 49.422211,70.08 49.9290992,67.1789474 L49.6474947,67.1789474 C49.3095692,68.5736842 48.0141881,72.3673684 46.9440907,75.0452632 L38.2706697,97.3052632 L24.8662918,97.3052632 L16.699759,75.1568421 C15.5733407,72.0884211 14.672206,69.0757895 14.1653178,67.1789474 L13.9400341,67.1789474 C14.4469224,69.8010526 14.5032433,72.8694737 14.5032433,75.5473684 L14.5032433,97.3052632 L2,97.3052632 Z M104.053499,104 L100.955849,96.4684211 L82.2009839,96.4684211 L79.1033336,104 L63.6150817,104 L82.2009839,64.3894737 L100.899528,64.3894737 L119.48543,104 L104.053499,104 Z M85.6928807,87.8768421 L97.4639521,87.8768421 L94.6479063,81.0147368 C93.0145997,77.2768421 92.1134651,75.0452632 91.6628977,72.4789474 L91.493935,72.4789474 C90.9870468,75.0452632 90.0859121,77.2768421 88.5089265,81.0147368 L85.6928807,87.8768421 Z M120.668169,90.6105263 L120.668169,77.5557895 L101.237453,51 L117.232593,51 L126.581865,65.4494737 C127.651963,66.9 127.877247,67.4021053 128.046209,67.8484211 L128.158851,67.8484211 C128.327814,67.4021053 128.553098,66.9 129.623195,65.4494737 L139.479355,51 L154.51704,51 L135.086324,77.5557895 L135.086324,90.6105263 L120.668169,90.6105263 Z M198.785279,64.3894737 L198.785279,104 L184.423446,104 L184.423446,88.7694737 L165.161693,88.7694737 L165.161693,104 L150.743538,104 L150.743538,64.3894737 L165.161693,64.3894737 L165.161693,79.2852632 L184.423446,79.2852632 L184.423446,64.3894737 L198.785279,64.3894737 Z M218.666563,81.0147368 L246.432774,81.0147368 L246.432774,90.6105263 L204.248408,90.6105263 L204.248408,51 L246.038528,51 L246.038528,60.5957895 L218.666563,60.5957895 L218.666563,66.2305263 L245.081072,66.2305263 L245.081072,75.0452632 L218.666563,75.0452632 L218.666563,81.0147368 Z M251.680299,97.3052632 L251.680299,57.6947368 L273.025926,57.6947368 L280.178683,77.8347368 C280.854534,79.7315789 281.474064,81.2936842 281.643026,82.8 L281.755668,82.8 C281.924631,81.2936842 282.544161,79.6757895 283.220012,77.7231579 L290.091164,57.6947368 L312,57.6947368 L312,97.3052632 L298.820906,97.3052632 L298.820906,75.5473684 C298.820906,73.0368421 299.10251,70.08 299.609399,67.1789474 L299.327794,67.1789474 C298.989868,68.5736842 297.694487,72.3673684 296.62439,75.0452632 L287.950969,97.3052632 L274.546591,97.3052632 L266.380058,75.1568421 C265.25364,72.0884211 264.352505,69.0757895 263.845617,67.1789474 L263.620333,67.1789474 C264.127222,69.8010526 264.183543,72.8694737 264.183543,75.5473684 L264.183543,97.3052632 L251.680299,97.3052632 Z" id="MAYHEM"></path>
            <path d="M2,37.8666667 L2,0 L22.3409979,0 L29.1571107,19.2533333 C29.8011528,21.0666667 30.3915248,22.56 30.5525353,24 L30.6598757,24 C30.8208862,22.56 31.4112582,21.0133333 32.0553003,19.1466667 L38.6030622,0 L59.4807619,0 L59.4807619,37.8666667 L46.92194,37.8666667 L46.92194,17.0666667 C46.92194,14.6666667 47.1902909,11.84 47.6733225,9.06666667 L47.4049716,9.06666667 C47.0829505,10.4 45.8485364,14.0266667 44.828803,16.5866667 L36.5635954,37.8666667 L23.7900927,37.8666667 L16.0079168,16.6933333 C14.9345132,13.76 14.0757903,10.88 13.5927587,9.06666667 L13.378078,9.06666667 C13.8611096,11.5733333 13.9147798,14.5066667 13.9147798,17.0666667 L13.9147798,37.8666667 L2,37.8666667 Z M100.407383,38 L97.4555231,30.8 L79.5833534,30.8 L76.6314935,38 L61.8721943,38 L79.5833534,0.133333333 L97.4018529,0.133333333 L115.113012,38 L100.407383,38 Z M82.9109045,22.5866667 L94.1279719,22.5866667 L91.444463,16.0266667 C89.8880278,12.4533333 89.0293049,10.32 88.5999435,7.86666667 L88.438933,7.86666667 C87.9559013,10.32 87.0971785,12.4533333 85.5944135,16.0266667 L82.9109045,22.5866667 Z M123.389852,37.8666667 L123.389852,25.3866667 L104.87364,0 L120.115971,0 L129.025221,13.8133333 C130.044954,15.2 130.259635,15.68 130.420645,16.1066667 L130.527986,16.1066667 C130.688996,15.68 130.903677,15.2 131.92341,13.8133333 L141.315692,0 L155.64563,0 L137.129418,25.3866667 L137.129418,37.8666667 L123.389852,37.8666667 Z M204.845893,0 L204.845893,37.8666667 L191.159998,37.8666667 L191.159998,23.3066667 L172.804796,23.3066667 L172.804796,37.8666667 L159.065231,37.8666667 L159.065231,0 L172.804796,0 L172.804796,14.24 L191.159998,14.24 L191.159998,0 L204.845893,0 Z M223.424346,28.6933333 L249.883744,28.6933333 L249.883744,37.8666667 L209.68478,37.8666667 L209.68478,0 L249.508053,0 L249.508053,9.17333333 L223.424346,9.17333333 L223.424346,14.56 L248.59566,14.56 L248.59566,22.9866667 L223.424346,22.9866667 L223.424346,28.6933333 Z M254.519238,37.8666667 L254.519238,0 L274.860236,0 L281.676349,19.2533333 C282.320391,21.0666667 282.910763,22.56 283.071773,24 L283.179114,24 C283.340124,22.56 283.930496,21.0133333 284.574538,19.1466667 L291.1223,0 L312,0 L312,37.8666667 L299.441178,37.8666667 L299.441178,17.0666667 C299.441178,14.6666667 299.709529,11.84 300.192561,9.06666667 L299.92421,9.06666667 C299.602189,10.4 298.367774,14.0266667 297.348041,16.5866667 L289.082833,37.8666667 L276.309331,37.8666667 L268.527155,16.6933333 C267.453751,13.76 266.595028,10.88 266.111997,9.06666667 L265.897316,9.06666667 C266.380348,11.5733333 266.434018,14.5066667 266.434018,17.0666667 L266.434018,37.8666667 L254.519238,37.8666667 Z" id="MAYHEM"></path>
        </g>
    </g>
</svg>