<?xml version="1.0" encoding="UTF-8"?>
<svg width="350px" height="200px" viewBox="0 0 350 200" version="1.1" xmlns="http://www.w3.org/2000/svg" xmlns:xlink="http://www.w3.org/1999/xlink">
    <!-- Generator: Sketch 51.1 (57501) - http://www.bohemiancoding.com/sketch -->
    <title>mayhem-biz-card-front-three</title>
    <desc>Created with Sketch.</desc>
    <defs></defs>
    <g id="mayhem-biz-card-front-three" stroke="none" stroke-width="1" fill="none" fill-rule="evenodd">
        <rect fill="#FFC800" x="0" y="0" width="350" height="200"></rect>
        <path d="M7.32827042,54.8085415 L5,21.5127232 L22.7766509,20.2696587 L29.9172813,36.7823995 C30.5916251,38.3374889 31.1993892,39.6144851 31.4286413,40.8708245 C31.5746219,39.5882462 31.9954686,38.1921978 32.4435438,36.5114964 L36.9885908,19.2758631 L55.2342826,18 L57.562553,51.2958182 L46.5869955,52.063304 L45.3080864,33.7740517 C45.1605199,31.6637534 45.2212399,29.1618916 45.4728555,26.693806 L45.2383351,26.7102052 C45.0388919,27.9022723 44.183087,31.1666042 43.4493135,33.4799063 L37.5345057,52.6963157 L26.3713318,53.4769209 L18.2683746,35.3349788 C17.1499337,32.8213223 16.2223886,30.341442 15.6887571,28.776513 L15.5011407,28.7896324 C16.0774025,30.9642031 16.3046656,33.5401768 16.4620698,35.7911617 L17.7409789,54.080414 L7.32827042,54.8085415 Z M78.0216509,153.666722 L76.8116185,146.921386 L61.4965632,143.66607 L57.6475682,149.336077 L45,146.647753 L67.116576,117.225988 L82.3856402,120.471528 L90.623228,156.345269 L78.0216509,153.666722 Z M65,136.691239 L74.6121519,138.734365 L73.5147881,132.589701 C72.8358982,129.22536 72.4909971,127.229639 72.5726688,125.036227 L72.4346954,125.006899 C71.5711739,127.034124 70.444358,128.717023 68.5017519,131.524147 L65,136.691239 Z M151.063561,98.3098856 L152.594513,87.4165925 L139.645198,63 L152.868535,64.8584188 L158.903152,78.001784 C159.617706,79.3364808 159.745068,79.7816285 159.83241,80.17368 L159.925533,80.1867674 C160.117556,79.8339783 160.362683,79.4411804 161.417449,78.3551454 L171.260147,67.4431914 L183.691946,69.1903668 L164.514141,89.0917869 L162.983188,99.98508 L151.063561,98.3098856 Z M224.370012,158 L230.738668,190.763891 L218.969203,193.051644 L216.52041,180.453697 L200.735482,183.521976 L203.184275,196.119923 L191.368655,198.416647 L185,165.652755 L196.815619,163.356031 L199.210592,175.677101 L214.995521,172.608821 L212.600548,160.287752 L224.370012,158 Z M255.43951,41.2713214 L278.394105,38.0452635 L279.51942,46.0522994 L244.645198,50.9535517 L240,17.9012524 L274.548295,13.0458061 L275.673611,21.052842 L253.044943,24.2330939 L253.705739,28.9348998 L275.542869,25.8658913 L276.576589,33.2211918 L254.739459,36.2902003 L255.43951,41.2713214 Z M292,168.239825 L300.638635,136 L317.851491,140.612171 L319.227067,158.550036 C319.358384,160.239947 319.517287,161.645239 319.325025,162.907768 C319.880619,161.742593 320.733046,160.559618 321.703893,159.116363 L331.612692,144.299474 L349.279713,149.033338 L340.641078,181.273163 L330.013616,178.425543 L334.758781,160.716343 C335.306301,158.672974 336.178239,156.327186 337.219676,154.075483 L336.992594,154.014636 C336.415917,155.076825 334.543976,157.884689 333.097042,159.833066 L321.24823,176.076865 L310.439102,173.180568 L308.684044,153.38896 C308.444903,150.648122 308.375262,148.00137 308.380195,146.347967 L308.198529,146.29929 C308.035424,148.542999 307.411651,151.05262 306.82763,153.232214 L302.082464,170.941414 L292,168.239825 Z" id="MAYHEM" fill="#0043C3"></path>
        <path d="M35.5,60.5 L58.5,114.5" id="Line" stroke="#0043C3" stroke-linecap="square" fill-rule="nonzero"></path>
        <path d="M93.5,129.5 L143.5,87.5" id="Line-2" stroke="#0043C3" stroke-linecap="square" fill-rule="nonzero"></path>
        <path d="M173.5,91.5 L199.5,155.5" id="Line-3" stroke="#0043C3" stroke-linecap="square" fill-rule="nonzero"></path>
        <path d="M215.5,152.5 L247.5,55.5" id="Line-4" stroke="#0043C3" stroke-linecap="square" fill-rule="nonzero"></path>
        <path d="M268.5,53.5 L301.5,126.5" id="Line-5" stroke="#0043C3" stroke-linecap="square" fill-rule="nonzero"></path>
    </g>
</svg>