<?xml version="1.0" encoding="UTF-8"?>
<svg width="1085px" height="652px" viewBox="0 0 1085 652" version="1.1" xmlns="http://www.w3.org/2000/svg" xmlns:xlink="http://www.w3.org/1999/xlink">
    <!-- Generator: Sketch 51.1 (57501) - http://www.bohemiancoding.com/sketch -->
    <title>mayhem-logo</title>
    <desc>Created with Sketch.</desc>
    <defs></defs>
    <g id="mayhem-logo" stroke="none" stroke-width="1" fill="none" fill-rule="evenodd">
        <g id="logo-stack" transform="translate(143.000000, 83.000000)" fill="#000000">
            <g id="logo/wobble/tilt" transform="translate(0.000000, 349.000000)">
                <path d="M5.77530356,127.50462 L-4.92731078,25.6760464 L49.551287,19.950115 L73.2484001,69.8062091 C75.4858356,74.501211 77.4890836,78.3507978 78.3273134,82.177828 L78.6147994,82.147612 C78.6390276,78.2299338 79.7830516,73.9045505 80.980374,68.7035361 L93.1054166,15.3723915 L149.021444,9.49538019 L159.724059,111.323954 L126.088196,114.859225 L120.209295,58.9252201 C119.530961,52.4712964 119.450748,44.7944686 119.960582,37.2006292 L119.241867,37.2761692 C118.756261,40.9523304 116.475211,51.0524101 114.467651,58.2236473 L98.3457969,117.775069 L64.1349624,121.370772 L37.3078075,66.6234834 C33.6038717,59.0375145 30.489982,51.5345341 28.6837755,46.7942082 L28.1088035,46.8546401 C30.1109734,53.4594329 31.0837922,61.3324538 31.8073492,68.2166391 L37.68625,124.150644 L5.77530356,127.50462 Z M264.532371,135.25055 L255.574954,116.22485 L207.510833,118.743784 L200.591213,138.601564 L160.898621,140.681765 L203.171081,35.9363717 L251.090865,33.4250022 L304.080626,133.177914 L264.532371,135.25055 Z M215.840921,96.0863604 L246.007291,94.505408 L237.862127,77.1700407 C233.170687,67.7405436 230.559404,62.1010578 229.05753,55.5369798 L228.62452,55.5596729 C227.67267,62.2523452 225.665178,68.1338906 222.129426,77.9945566 L215.840921,96.0863604 Z M300.143263,100.582242 L303.084357,66.9653894 L259.392345,-5.76358659 L300.284022,-2.18602837 L320.930183,37.1134759 C323.339106,41.0880254 323.801926,42.4313694 324.13333,43.6184546 L324.421299,43.6436487 C324.953804,42.5321457 325.642862,41.289578 328.705361,37.7937158 L357.15801,2.78980084 L395.601947,6.15320945 L339.94446,70.1902306 L337.003367,103.807083 L300.143263,100.582242 Z M508.425519,39.035308 L501.283191,141.175366 L464.516602,138.604396 L467.262878,99.3308241 L417.952395,95.8826992 L415.206119,135.156271 L378.295348,132.575218 L385.437677,30.4351603 L422.348448,33.0162128 L419.66253,71.426629 L468.973013,74.8747539 L471.658931,36.4643377 L508.425519,39.035308 Z M559.864827,79.7121017 L630.427018,69.7952325 L633.879097,94.3580502 L526.676093,109.42445 L512.426233,8.03142349 L618.627339,-6.89416869 L622.079418,17.668649 L552.519125,27.4447107 L554.546217,41.8682257 L621.673332,32.434125 L624.844428,54.9976435 L557.717313,64.4317442 L559.864827,79.7121017 Z M643.174661,116.962386 L646.748002,14.6352853 L701.493313,16.5470337 L718.021181,69.2159324 C719.583424,74.1766337 721.031417,78.2675548 721.32887,82.1739997 L721.617763,82.184088 C722.186991,78.3079083 723.921858,74.1838368 725.83137,69.2000734 L745.260673,18.0754236 L801.450452,20.0376139 L797.877111,122.364715 L764.076576,121.184374 L766.039397,64.9765299 C766.265876,58.4910094 767.254852,50.8777285 768.816582,43.428747 L768.094349,43.403526 C767.101846,46.9763278 763.437336,56.6606535 760.45127,63.4827024 L736.198356,120.210845 L701.820034,119.010328 L682.873309,61.0622171 C680.261183,53.0345861 678.22181,45.1712544 677.092907,40.2256857 L676.51512,40.2055089 C677.578596,47.0246725 677.446235,54.9564639 677.204657,61.8743524 L675.241835,118.082197 L643.174661,116.962386 Z" id="MAYHEM"></path>
            </g>
            <path d="M0,275.131037 L0,172.368343 L55.0854891,172.368343 L73.544215,224.618107 C75.2883466,229.539138 76.8871339,233.591751 77.3231668,237.499628 L77.6138554,237.499628 C78.0498883,233.591751 79.6486756,229.394401 81.3928072,224.328635 L99.1248116,172.368343 L155.663744,172.368343 L155.663744,275.131037 L121.653178,275.131037 L121.653178,218.683923 C121.653178,212.170795 122.379899,204.499777 123.687998,196.973495 L122.961277,196.973495 C122.089211,200.5919 118.746292,210.433961 115.98475,217.381298 L93.6017282,275.131037 L59.0097852,275.131037 L37.9348619,217.67077 C35.0279759,209.71028 32.7024672,201.894525 31.3943685,196.973495 L30.8129913,196.973495 C32.12109,203.776096 32.2664343,211.736586 32.2664343,218.683923 L32.2664343,275.131037 L0,275.131037 Z M263.363869,292.49938 L255.369932,272.959995 L206.970281,272.959995 L198.976345,292.49938 L159.006663,292.49938 L206.970281,189.736686 L255.224588,189.736686 L303.188207,292.49938 L263.363869,292.49938 Z M215.981628,250.670621 L246.358586,250.670621 L239.091371,232.86807 C234.876386,223.170745 232.550878,217.381298 231.388123,210.723433 L230.95209,210.723433 C229.643992,217.381298 227.318483,223.170745 223.248842,232.86807 L215.981628,250.670621 Z M306.240437,257.762695 L306.240437,223.894426 L256.096654,155 L297.374435,155 L321.501588,192.486673 C324.26313,196.249814 324.844507,197.55244 325.28054,198.710329 L325.571229,198.710329 C326.007262,197.55244 326.588639,196.249814 329.35018,192.486673 L354.785433,155 L393.59236,155 L343.448577,223.894426 L343.448577,257.762695 L306.240437,257.762695 Z M507.832979,189.736686 L507.832979,292.49938 L470.770183,292.49938 L470.770183,252.9864 L421.062433,252.9864 L421.062433,292.49938 L383.854292,292.49938 L383.854292,189.736686 L421.062433,189.736686 L421.062433,228.381248 L470.770183,228.381248 L470.770183,189.736686 L507.832979,189.736686 Z M559.139516,232.86807 L630.794255,232.86807 L630.794255,257.762695 L521.931376,257.762695 L521.931376,155 L629.776845,155 L629.776845,179.894625 L559.139516,179.894625 L559.139516,194.51298 L627.305992,194.51298 L627.305992,217.381298 L559.139516,217.381298 L559.139516,232.86807 Z M644.336256,275.131037 L644.336256,172.368343 L699.421745,172.368343 L717.880471,224.618107 C719.624603,229.539138 721.22339,233.591751 721.659423,237.499628 L721.950112,237.499628 C722.386145,233.591751 723.984932,229.394401 725.729063,224.328635 L743.461068,172.368343 L800,172.368343 L800,275.131037 L765.989434,275.131037 L765.989434,218.683923 C765.989434,212.170795 766.716156,204.499777 768.024254,196.973495 L767.297533,196.973495 C766.425467,200.5919 763.082548,210.433961 760.321007,217.381298 L737.937985,275.131037 L703.346041,275.131037 L682.271118,217.67077 C679.364232,209.71028 677.038723,201.894525 675.730625,196.973495 L675.149248,196.973495 C676.457346,203.776096 676.602691,211.736586 676.602691,218.683923 L676.602691,275.131037 L644.336256,275.131037 Z" id="MAYHEM"></path>
            <path d="M0,97.9261819 L0,0 L52.4928978,0 L70.0828662,49.7906362 C71.7449105,54.480059 73.268451,58.3419366 73.6839621,62.06589 L73.9609695,62.06589 C74.3764805,58.3419366 75.9000211,54.3421348 77.5620654,49.5147878 L94.4595153,0 L148.33745,0 L148.33745,97.9261819 L115.927587,97.9261819 L115.927587,44.135744 C115.927587,37.929155 116.620105,30.6191724 117.866639,23.447114 L117.17412,23.447114 C116.343098,26.895219 113.157513,36.2740646 110.525943,42.8944262 L89.1963752,97.9261819 L56.2324974,97.9261819 L36.1494626,43.1702746 C33.3793888,35.5844436 31.1633298,28.1365368 29.9167966,23.447114 L29.3627819,23.447114 C30.6093151,29.9295514 30.7478188,37.5153824 30.7478188,44.135744 L30.7478188,97.9261819 L0,97.9261819 Z M253.954537,98.2709924 L246.336834,79.6512254 L200.215106,79.6512254 L192.597403,98.2709924 L154.508888,98.2709924 L200.215106,0.3448105 L246.19833,0.3448105 L291.904547,98.2709924 L253.954537,98.2709924 Z M208.802334,58.4108987 L237.749605,58.4108987 L230.824421,41.4462221 C226.807814,32.2053007 224.591755,26.6883327 223.483725,20.3438195 L223.068214,20.3438195 C221.821681,26.6883327 219.605622,32.2053007 215.727519,41.4462221 L208.802334,58.4108987 Z M313.264134,97.9261819 L313.264134,65.6519191 L265.480361,0 L304.815409,0 L327.807021,35.7223678 C330.438591,39.308397 330.992606,40.5497148 331.408117,41.6531084 L331.685124,41.6531084 C332.100635,40.5497148 332.65465,39.308397 335.28622,35.7223678 L359.524366,0 L396.50485,0 L348.721078,65.6519191 L348.721078,97.9261819 L313.264134,97.9261819 Z M523.473273,0 L523.473273,97.9261819 L488.154833,97.9261819 L488.154833,60.2728754 L440.786571,60.2728754 L440.786571,97.9261819 L405.329627,97.9261819 L405.329627,0 L440.786571,0 L440.786571,36.8257614 L488.154833,36.8257614 L488.154833,0 L523.473273,0 Z M571.417667,74.2032195 L639.699985,74.2032195 L639.699985,97.9261819 L535.960723,97.9261819 L535.960723,0 L638.730459,0 L638.730459,23.7229624 L571.417667,23.7229624 L571.417667,37.6533066 L636.375897,37.6533066 L636.375897,59.4453302 L571.417667,59.4453302 L571.417667,74.2032195 Z M651.66255,97.9261819 L651.66255,0 L704.155448,0 L721.745416,49.7906362 C723.40746,54.480059 724.931001,58.3419366 725.346512,62.06589 L725.623519,62.06589 C726.039031,58.3419366 727.562571,54.3421348 729.224615,49.5147878 L746.122065,0 L800,0 L800,97.9261819 L767.590137,97.9261819 L767.590137,44.135744 C767.590137,37.929155 768.282655,30.6191724 769.529189,23.447114 L768.83667,23.447114 C768.005648,26.895219 764.820063,36.2740646 762.188493,42.8944262 L740.858925,97.9261819 L707.895047,97.9261819 L687.812013,43.1702746 C685.041939,35.5844436 682.82588,28.1365368 681.579347,23.447114 L681.025332,23.447114 C682.271865,29.9295514 682.410369,37.5153824 682.410369,44.135744 L682.410369,97.9261819 L651.66255,97.9261819 Z" id="MAYHEM"></path>
        </g>
    </g>
</svg>