<?xml version="1.0" encoding="UTF-8"?>
<svg width="350px" height="200px" viewBox="0 0 350 200" version="1.1" xmlns="http://www.w3.org/2000/svg" xmlns:xlink="http://www.w3.org/1999/xlink">
    <!-- Generator: Sketch 51.1 (57501) - http://www.bohemiancoding.com/sketch -->
    <title>mayhem-biz-card-front-five</title>
    <desc>Created with Sketch.</desc>
    <defs></defs>
    <g id="mayhem-biz-card-front-five" stroke="none" stroke-width="1" fill="none" fill-rule="evenodd">
        <rect fill="#E0254E" x="0" y="0" width="350" height="200"></rect>
        <path d="M47.5,40 C23.4771528,122.666667 22.6438195,164 45,164 C67.3561805,164 110.689514,122.666667 175,40 C150.235563,122.666667 150.235563,164 175,164 C199.764437,164 246.431104,122.666667 315,40 C349.937929,120.666667 349.937929,161 315,161 C280.062071,161 190.895404,120.666667 47.5,40 Z" id="Line-6" stroke="#FBE5D0" stroke-linecap="square" fill-rule="nonzero"></path>
        <path d="M19.2399442,56.8666667 L19.2399442,19 L39.5809421,19 L46.3970548,38.2533333 C47.041097,40.0666667 47.6314689,41.56 47.7924795,43 L47.8998198,43 C48.0608304,41.56 48.6512023,40.0133333 49.2952445,38.1466667 L55.8430063,19 L76.720706,19 L76.720706,56.8666667 L64.1618841,56.8666667 L64.1618841,36.0666667 C64.1618841,33.6666667 64.430235,30.84 64.9132666,28.0666667 L64.6449157,28.0666667 C64.3228946,29.4 63.0884805,33.0266667 62.0687471,35.5866667 L53.8035395,56.8666667 L41.0300369,56.8666667 L33.2478609,35.6933333 C32.1744573,32.76 31.3157345,29.88 30.8327029,28.0666667 L30.6180221,28.0666667 C31.1010537,30.5733333 31.1547239,33.5066667 31.1547239,36.0666667 L31.1547239,56.8666667 L19.2399442,56.8666667 Z M57.7751328,180.866667 L54.8232729,173.666667 L36.9511033,173.666667 L33.9992434,180.866667 L19.2399442,180.866667 L36.9511033,143 L54.7696028,143 L72.4807619,180.866667 L57.7751328,180.866667 Z M40.2399442,165.72 L51.4570116,165.72 L48.7735026,159.16 C47.2170674,155.586667 46.3583446,153.453333 45.9289831,151 L45.7679726,151 C45.284941,153.453333 44.4262181,155.586667 42.9234531,159.16 L40.2399442,165.72 Z M167.756156,56.8666667 L167.756156,44.3866667 L149.239944,19 L164.482275,19 L173.391525,32.8133333 C174.411258,34.2 174.625939,34.68 174.786949,35.1066667 L174.89429,35.1066667 C175.0553,34.68 175.269981,34.2 176.289714,32.8133333 L185.681996,19 L200.011934,19 L181.495722,44.3866667 L181.495722,56.8666667 L167.756156,56.8666667 Z M197.020607,143 L197.020607,180.866667 L183.334711,180.866667 L183.334711,166.306667 L164.97951,166.306667 L164.97951,180.866667 L151.239944,180.866667 L151.239944,143 L164.97951,143 L164.97951,157.24 L183.334711,157.24 L183.334711,143 L197.020607,143 Z M304.97951,47.6933333 L331.438908,47.6933333 L331.438908,56.8666667 L291.239944,56.8666667 L291.239944,19 L331.063217,19 L331.063217,28.1733333 L304.97951,28.1733333 L304.97951,33.56 L330.150824,33.56 L330.150824,41.9866667 L304.97951,41.9866667 L304.97951,47.6933333 Z M273.239944,180.866667 L273.239944,143 L293.580942,143 L300.397055,162.253333 C301.041097,164.066667 301.631469,165.56 301.792479,167 L301.89982,167 C302.06083,165.56 302.651202,164.013333 303.295244,162.146667 L309.843006,143 L330.720706,143 L330.720706,180.866667 L318.161884,180.866667 L318.161884,160.066667 C318.161884,157.666667 318.430235,154.84 318.913267,152.066667 L318.644916,152.066667 C318.322895,153.4 317.088481,157.026667 316.068747,159.586667 L307.80354,180.866667 L295.030037,180.866667 L287.247861,159.693333 C286.174457,156.76 285.315734,153.88 284.832703,152.066667 L284.618022,152.066667 C285.101054,154.573333 285.154724,157.506667 285.154724,160.066667 L285.154724,180.866667 L273.239944,180.866667 Z" id="MAYHEM" stroke="#FBE5D0" fill="#E0254E"></path>
    </g>
</svg>