<?xml version="1.0" encoding="UTF-8"?>
<svg width="350px" height="200px" viewBox="0 0 350 200" version="1.1" xmlns="http://www.w3.org/2000/svg" xmlns:xlink="http://www.w3.org/1999/xlink">
    <!-- Generator: Sketch 51.1 (57501) - http://www.bohemiancoding.com/sketch -->
    <title>mayhem-biz-card-front-two</title>
    <desc>Created with Sketch.</desc>
    <defs></defs>
    <g id="mayhem-biz-card-front-two" stroke="none" stroke-width="1" fill="none" fill-rule="evenodd">
        <rect fill="#EEEAE7" x="0" y="0" width="350" height="200"></rect>
        <path d="M-15.0242616,48.6259808 L-20.0096988,1.1927141 L5.39383827,-1.47730524 L16.4412182,21.7454696 C17.4842911,23.9323829 18.4182057,25.7254967 18.8088762,27.5081622 L18.9429318,27.4940724 C18.9544281,25.6691374 19.4881034,23.6542283 20.0466761,21.2314298 L25.7032624,-3.61191173 L51.7770774,-6.35238012 L56.7625147,41.0808866 L41.0780089,42.7293946 L38.3395293,16.6745016 C38.0235509,13.6681678 37.9865376,10.0921501 38.2246572,6.55476022 L37.8895182,6.58998475 C37.6628949,8.30243963 36.598734,13.0073769 35.6622494,16.3479862 L28.1416431,44.0890614 L12.1890262,45.765749 L-0.317636975,20.2647155 C-2.04438886,16.7312056 -3.4960078,13.2363235 -4.33799727,11.0282755 L-4.60610847,11.0564551 C-3.67283635,14.1329996 -3.21961271,17.8003627 -2.88256907,21.0071187 L-0.144089464,47.0620117 L-15.0242616,48.6259808 Z M105.636256,52.2293814 L101.459883,43.3671299 L79.0474358,44.5417165 L75.8202984,53.7919695 L57.311521,54.7619735 L77.0259143,5.96879006 L99.3710564,4.79773078 L124.077729,51.2629048 L105.636256,52.2293814 Z M82.9320834,33.9873239 L96.9987542,33.250121 L93.2010921,25.1752332 C91.0137062,20.7829401 89.7962043,18.1560427 89.0960455,15.0984268 L88.8941315,15.1090087 C88.4501114,18.2265884 87.5138647,20.966359 85.8648858,25.5597075 L82.9320834,33.9873239 Z M122.24521,36.0803994 L123.615216,20.4211687 L103.238576,-13.4591935 L122.30649,-11.7909671 L131.935448,6.51634833 C133.058895,8.36786954 133.274765,8.99364379 133.429349,9.54662421 L133.56363,9.55837228 C133.811889,9.04063608 134.133144,8.46185412 135.561037,6.8335463 L148.827005,-9.4707227 L166.753531,-7.90235496 L140.803195,21.9249221 L139.43319,37.5841527 L122.24521,36.0803994 Z M219.363943,7.41380693 L216.03694,54.9921678 L198.892567,53.7933165 L200.171823,35.4991017 L177.178194,33.8912305 L175.898938,52.1854453 L158.687332,50.9818926 L162.014335,3.4035317 L179.225941,4.60708441 L177.9748,22.4992286 L200.96843,24.1070998 L202.21957,6.2149556 L219.363943,7.41380693 Z M243.3502,26.360728 L276.253566,21.7364615 L277.861596,33.178188 L227.872507,40.2036963 L221.234709,-7.02668612 L270.756611,-13.9865355 L272.364641,-2.54480904 L239.928463,2.0137985 L240.872713,8.7324867 L272.174292,4.33333663 L273.651436,14.8437598 L242.349856,19.2429098 L243.3502,26.360728 Z M282.200496,43.7099832 L283.865012,-3.95550493 L309.392918,-3.0640508 L317.1008,21.4702197 C317.829363,23.7810178 318.504635,25.6866569 318.643405,27.5063445 L318.778116,27.5110488 C319.043483,25.7054739 319.852386,23.784447 320.742711,21.4629653 L329.801772,-2.35135791 L356.003238,-1.43638256 L354.338723,46.2291056 L338.577429,45.6787091 L339.491741,19.4962579 C339.597238,16.4752058 340.058271,12.9288384 340.786382,9.45901403 L340.449603,9.44725342 C339.986857,11.1115029 338.278252,15.6225495 336.885958,18.8003147 L325.57773,45.2247496 L309.547013,44.6649447 L300.711122,17.6714943 C299.492944,13.9320549 298.541846,10.2691585 298.015352,7.96541673 L297.745928,7.95600824 C298.241945,11.1324984 298.18036,14.8272475 298.067829,18.049703 L297.153518,44.2321543 L282.200496,43.7099832 Z" id="MAYHEM" fill="#005340"></path>
        <path d="M-6.01456278,136.625981 L-11,89.1927141 L14.4035371,86.5226948 L25.450917,109.74547 C26.4939899,111.932383 27.4279045,113.725497 27.818575,115.508162 L27.9526306,115.494072 C27.9641269,113.669137 28.4978022,111.654228 29.0563749,109.23143 L34.7129612,84.3880883 L60.7867762,81.6476199 L65.7722135,129.080887 L50.0877077,130.729395 L47.3492281,104.674502 C47.0332497,101.668168 46.9962364,98.0921501 47.234356,94.5547602 L46.899217,94.5899848 C46.6725937,96.3024396 45.6084328,101.007377 44.6719482,104.347986 L37.1513419,132.089061 L21.1987249,133.765749 L8.69206182,108.264715 C6.96530993,104.731206 5.513691,101.236324 4.67170153,99.0282755 L4.40359032,99.0564551 C5.33686244,102.133 5.79008608,105.800363 6.12712973,109.007119 L8.86560933,135.062012 L-6.01456278,136.625981 Z M114.645955,140.229381 L110.469581,131.36713 L88.0571346,132.541716 L84.8299972,141.79197 L66.3212198,142.761973 L86.0356131,93.9687901 L108.380755,92.7977308 L133.087428,139.262905 L114.645955,140.229381 Z M91.9417822,121.987324 L106.008453,121.250121 L102.210791,113.175233 C100.023405,108.78294 98.8059031,106.156043 98.1057443,103.098427 L97.9038303,103.109009 C97.4598102,106.226588 96.5235635,108.966359 94.8745846,113.559708 L91.9417822,121.987324 Z M131.254909,124.080399 L132.624914,108.421169 L112.248275,74.5408065 L131.316189,76.2090329 L140.945146,94.5163483 C142.068594,96.3678695 142.284464,96.9936438 142.439047,97.5466242 L142.573329,97.5583723 C142.821588,97.0406361 143.142843,96.4618541 144.570736,94.8335463 L157.836704,78.5292773 L175.76323,80.097645 L149.812894,109.924922 L148.442888,125.584153 L131.254909,124.080399 Z M228.373642,95.4138069 L225.046639,142.992168 L207.902266,141.793317 L209.181522,123.499102 L186.187893,121.89123 L184.908637,140.185445 L167.697031,138.981893 L171.024034,91.4035317 L188.23564,92.6070844 L186.984499,110.499229 L209.978128,112.1071 L211.229269,94.2149556 L228.373642,95.4138069 Z M252.359899,114.360728 L285.263265,109.736462 L286.871295,121.178188 L236.882206,128.203696 L230.244408,80.9733139 L279.76631,74.0134645 L281.374339,85.455191 L248.938161,90.0137985 L249.882411,96.7324867 L281.183991,92.3333366 L282.661134,102.84376 L251.359555,107.24291 L252.359899,114.360728 Z M291.210195,131.709983 L292.874711,84.0444951 L318.402617,84.9359492 L326.110499,109.47022 C326.839061,111.781018 327.514334,113.686657 327.653103,115.506345 L327.787815,115.511049 C328.053182,113.705474 328.862084,111.784447 329.752409,109.462965 L338.811471,85.6486421 L365.012937,86.5636174 L363.348421,134.229106 L347.587128,133.678709 L348.50144,107.496258 C348.606937,104.475206 349.067969,100.928838 349.796081,97.459014 L349.459301,97.4472534 C348.996556,99.1115029 347.287951,103.622549 345.895657,106.800315 L334.587429,133.22475 L318.556712,132.664945 L309.720821,105.671494 C308.502643,101.932055 307.551545,98.2691585 307.025051,95.9654167 L306.755627,95.9560082 C307.251644,99.1324984 307.190059,102.827247 307.077528,106.049703 L306.163217,132.232154 L291.210195,131.709983 Z" id="MAYHEM" fill="#005340"></path>
        <path d="M-3.01456278,224.625981 L-8,177.192714 L17.4035371,174.522695 L28.450917,197.74547 C29.4939899,199.932383 30.4279045,201.725497 30.818575,203.508162 L30.9526306,203.494072 C30.9641269,201.669137 31.4978022,199.654228 32.0563749,197.23143 L37.7129612,172.388088 L63.7867762,169.64762 L68.7722135,217.080887 L53.0877077,218.729395 L50.3492281,192.674502 C50.0332497,189.668168 49.9962364,186.09215 50.234356,182.55476 L49.899217,182.589985 C49.6725937,184.30244 48.6084328,189.007377 47.6719482,192.347986 L40.1513419,220.089061 L24.1987249,221.765749 L11.6920618,196.264715 C9.96530993,192.731206 8.513691,189.236324 7.67170153,187.028275 L7.40359032,187.056455 C8.33686244,190.133 8.79008608,193.800363 9.12712973,197.007119 L11.8656093,223.062012 L-3.01456278,224.625981 Z M117.645955,228.229381 L113.469581,219.36713 L91.0571346,220.541716 L87.8299972,229.79197 L69.3212198,230.761973 L89.0356131,181.96879 L111.380755,180.797731 L136.087428,227.262905 L117.645955,228.229381 Z M94.9417822,209.987324 L109.008453,209.250121 L105.210791,201.175233 C103.023405,196.78294 101.805903,194.156043 101.105744,191.098427 L100.90383,191.109009 C100.45981,194.226588 99.5235635,196.966359 97.8745846,201.559708 L94.9417822,209.987324 Z M134.254909,212.080399 L135.624914,196.421169 L115.248275,162.540807 L134.316189,164.209033 L143.945146,182.516348 C145.068594,184.36787 145.284464,184.993644 145.439047,185.546624 L145.573329,185.558372 C145.821588,185.040636 146.142843,184.461854 147.570736,182.833546 L160.836704,166.529277 L178.76323,168.097645 L152.812894,197.924922 L151.442888,213.584153 L134.254909,212.080399 Z M231.373642,183.413807 L228.046639,230.992168 L210.902266,229.793317 L212.181522,211.499102 L189.187893,209.89123 L187.908637,228.185445 L170.697031,226.981893 L174.024034,179.403532 L191.23564,180.607084 L189.984499,198.499229 L212.978128,200.1071 L214.229269,182.214956 L231.373642,183.413807 Z M255.359899,202.360728 L288.263265,197.736462 L289.871295,209.178188 L239.882206,216.203696 L233.244408,168.973314 L282.76631,162.013465 L284.374339,173.455191 L251.938161,178.013798 L252.882411,184.732487 L284.183991,180.333337 L285.661134,190.84376 L254.359555,195.24291 L255.359899,202.360728 Z M294.210195,219.709983 L295.874711,172.044495 L321.402617,172.935949 L329.110499,197.47022 C329.839061,199.781018 330.514334,201.686657 330.653103,203.506345 L330.787815,203.511049 C331.053182,201.705474 331.862084,199.784447 332.752409,197.462965 L341.811471,173.648642 L368.012937,174.563617 L366.348421,222.229106 L350.587128,221.678709 L351.50144,195.496258 C351.606937,192.475206 352.067969,188.928838 352.796081,185.459014 L352.459301,185.447253 C351.996556,187.111503 350.287951,191.622549 348.895657,194.800315 L337.587429,221.22475 L321.556712,220.664945 L312.720821,193.671494 C311.502643,189.932055 310.551545,186.269158 310.025051,183.965417 L309.755627,183.956008 C310.251644,187.132498 310.190059,190.827247 310.077528,194.049703 L309.163217,220.232154 L294.210195,219.709983 Z" id="MAYHEM" fill="#005340"></path>
        <path d="M0.975738431,92.6259808 L-4.00969879,45.1927141 L21.3938383,42.5226948 L32.4412182,65.7454696 C33.4842911,67.9323829 34.4182057,69.7254967 34.8088762,71.5081622 L34.9429318,71.4940724 C34.9544281,69.6691374 35.4881034,67.6542283 36.0466761,65.2314298 L41.7032624,40.3880883 L67.7770774,37.6476199 L72.7625147,85.0808866 L57.0780089,86.7293946 L54.3395293,60.6745016 C54.0235509,57.6681678 53.9865376,54.0921501 54.2246572,50.5547602 L53.8895182,50.5899848 C53.6628949,52.3024396 52.598734,57.0073769 51.6622494,60.3479862 L44.1416431,88.0890614 L28.1890262,89.765749 L15.682363,64.2647155 C13.9556111,60.7312056 12.5039922,57.2363235 11.6620027,55.0282755 L11.3938915,55.0564551 C12.3271636,58.1329996 12.7803873,61.8003627 13.1174309,65.0071187 L15.8559105,91.0620117 L0.975738431,92.6259808 Z M121.636256,96.2293814 L117.459883,87.3671299 L95.0474358,88.5417165 L91.8202984,97.7919695 L73.311521,98.7619735 L93.0259143,49.9687901 L115.371056,48.7977308 L140.077729,95.2629048 L121.636256,96.2293814 Z M98.9320834,77.9873239 L112.998754,77.250121 L109.201092,69.1752332 C107.013706,64.7829401 105.796204,62.1560427 105.096045,59.0984268 L104.894132,59.1090087 C104.450111,62.2265884 103.513865,64.966359 101.864886,69.5597075 L98.9320834,77.9873239 Z M138.24521,80.0803994 L139.615216,64.4211687 L119.238576,30.5408065 L138.30649,32.2090329 L147.935448,50.5163483 C149.058895,52.3678695 149.274765,52.9936438 149.429349,53.5466242 L149.56363,53.5583723 C149.811889,53.0406361 150.133144,52.4618541 151.561037,50.8335463 L164.827005,34.5292773 L182.753531,36.097645 L156.803195,65.9249221 L155.43319,81.5841527 L138.24521,80.0803994 Z M235.363943,51.4138069 L232.03694,98.9921678 L214.892567,97.7933165 L216.171823,79.4991017 L193.178194,77.8912305 L191.898938,96.1854453 L174.687332,94.9818926 L178.014335,47.4035317 L195.225941,48.6070844 L193.9748,66.4992286 L216.96843,68.1070998 L218.21957,50.2149556 L235.363943,51.4138069 Z M259.3502,70.360728 L292.253566,65.7364615 L293.861596,77.178188 L243.872507,84.2036963 L237.234709,36.9733139 L286.756611,30.0134645 L288.364641,41.455191 L255.928463,46.0137985 L256.872713,52.7324867 L288.174292,48.3333366 L289.651436,58.8437598 L258.349856,63.2429098 L259.3502,70.360728 Z M298.200496,87.7099832 L299.865012,40.0444951 L325.392918,40.9359492 L333.1008,65.4702197 C333.829363,67.7810178 334.504635,69.6866569 334.643405,71.5063445 L334.778116,71.5110488 C335.043483,69.7054739 335.852386,67.784447 336.742711,65.4629653 L345.801772,41.6486421 L372.003238,42.5636174 L370.338723,90.2291056 L354.577429,89.6787091 L355.491741,63.4962579 C355.597238,60.4752058 356.058271,56.9288384 356.786382,53.459014 L356.449603,53.4472534 C355.986857,55.1115029 354.278252,59.6225495 352.885958,62.8003147 L341.57773,89.2247496 L325.547013,88.6649447 L316.711122,61.6714943 C315.492944,57.9320549 314.541846,54.2691585 314.015352,51.9654167 L313.745928,51.9560082 C314.241945,55.1324984 314.18036,58.8272475 314.067829,62.049703 L313.153518,88.2321543 L298.200496,87.7099832 Z" id="MAYHEM" stroke="#005340" stroke-width="2"></path>
        <path d="M4.98543722,12.6259808 L-3.69038133e-13,-34.8072859 L25.4035371,-37.4773052 L36.450917,-14.2545304 C37.4939899,-12.0676171 38.4279045,-10.2745033 38.818575,-8.49183778 L38.9526306,-8.50592759 C38.9641269,-10.3308626 39.4978022,-12.3457717 40.0563749,-14.7685702 L45.7129612,-39.6119117 L71.7867762,-42.3523801 L76.7722135,5.0808866 L61.0877077,6.72939458 L58.3492281,-19.3254984 C58.0332497,-22.3318322 57.9962364,-25.9078499 58.234356,-29.4452398 L57.899217,-29.4100152 C57.6725937,-27.6975604 56.6084328,-22.9926231 55.6719482,-19.6520138 L48.1513419,8.08906141 L32.1987249,9.76574902 L19.6920618,-15.7352845 C17.9653099,-19.2687944 16.513691,-22.7636765 15.6717015,-24.9717245 L15.4035903,-24.9435449 C16.3368624,-21.8670004 16.7900861,-18.1996373 17.1271297,-14.9928813 L19.8656093,11.0620117 L4.98543722,12.6259808 Z M125.645955,16.2293814 L121.469581,7.3671299 L99.0571346,8.54171647 L95.8299972,17.7919695 L77.3212198,18.7619735 L97.0356131,-30.0312099 L119.380755,-31.2022692 L144.087428,15.2629048 L125.645955,16.2293814 Z M102.941782,-2.01267606 L117.008453,-2.74987904 L113.210791,-10.8247668 C111.023405,-15.2170599 109.805903,-17.8439573 109.105744,-20.9015732 L108.90383,-20.8909913 C108.45981,-17.7734116 107.523563,-15.033641 105.874585,-10.4402925 L102.941782,-2.01267606 Z M142.254909,0.0803993938 L143.624914,-15.5788313 L123.248275,-49.4591935 L142.316189,-47.7909671 L151.945146,-29.4836517 C153.068594,-27.6321305 153.284464,-27.0063562 153.439047,-26.4533758 L153.573329,-26.4416277 C153.821588,-26.9593639 154.142843,-27.5381459 155.570736,-29.1664537 L168.836704,-45.4707227 L186.76323,-43.902355 L160.812894,-14.0750779 L159.442888,1.58415273 L142.254909,0.0803993938 Z M239.373642,-28.5861931 L236.046639,18.9921678 L218.902266,17.7933165 L220.181522,-0.50089832 L197.187893,-2.10876952 L195.908637,16.1854453 L178.697031,14.9818926 L182.024034,-32.5964683 L199.23564,-31.3929156 L197.984499,-13.5007714 L220.978128,-11.8929002 L222.229269,-29.7850444 L239.373642,-28.5861931 Z M263.359899,-9.63927198 L296.263265,-14.2635385 L297.871295,-2.82181204 L247.882206,4.20369629 L241.244408,-43.0266861 L290.76631,-49.9865355 L292.374339,-38.544809 L259.938161,-33.9862015 L260.882411,-27.2675133 L292.183991,-31.6666634 L293.661134,-21.1562402 L262.359555,-16.7570902 L263.359899,-9.63927198 Z M302.210195,7.70998325 L303.874711,-39.9555049 L329.402617,-39.0640508 L337.110499,-14.5297803 C337.839061,-12.2189822 338.514334,-10.3133431 338.653103,-8.49365549 L338.787815,-8.48895125 C339.053182,-10.2945261 339.862084,-12.215553 340.752409,-14.5370347 L349.811471,-38.3513579 L376.012937,-37.4363826 L374.348421,10.2291056 L358.587128,9.67870914 L359.50144,-16.5037421 C359.606937,-19.5247942 360.067969,-23.0711616 360.796081,-26.540986 L360.459301,-26.5527466 C359.996556,-24.8884971 358.287951,-20.3774505 356.895657,-17.1996853 L345.587429,9.22474965 L329.556712,8.66494467 L320.720821,-18.3285057 C319.502643,-22.0679451 318.551545,-25.7308415 318.025051,-28.0345833 L317.755627,-28.0439918 C318.251644,-24.8675016 318.190059,-21.1727525 318.077528,-17.950297 L317.163217,8.23215427 L302.210195,7.70998325 Z" id="MAYHEM" stroke="#005340" stroke-width="2"></path>
        <path d="M-3.01456278,180.625981 L-8,133.192714 L17.4035371,130.522695 L28.450917,153.74547 C29.4939899,155.932383 30.4279045,157.725497 30.818575,159.508162 L30.9526306,159.494072 C30.9641269,157.669137 31.4978022,155.654228 32.0563749,153.23143 L37.7129612,128.388088 L63.7867762,125.64762 L68.7722135,173.080887 L53.0877077,174.729395 L50.3492281,148.674502 C50.0332497,145.668168 49.9962364,142.09215 50.234356,138.55476 L49.899217,138.589985 C49.6725937,140.30244 48.6084328,145.007377 47.6719482,148.347986 L40.1513419,176.089061 L24.1987249,177.765749 L11.6920618,152.264715 C9.96530993,148.731206 8.513691,145.236324 7.67170153,143.028275 L7.40359032,143.056455 C8.33686244,146.133 8.79008608,149.800363 9.12712973,153.007119 L11.8656093,179.062012 L-3.01456278,180.625981 Z M117.645955,184.229381 L113.469581,175.36713 L91.0571346,176.541716 L87.8299972,185.79197 L69.3212198,186.761973 L89.0356131,137.96879 L111.380755,136.797731 L136.087428,183.262905 L117.645955,184.229381 Z M94.9417822,165.987324 L109.008453,165.250121 L105.210791,157.175233 C103.023405,152.78294 101.805903,150.156043 101.105744,147.098427 L100.90383,147.109009 C100.45981,150.226588 99.5235635,152.966359 97.8745846,157.559708 L94.9417822,165.987324 Z M134.254909,168.080399 L135.624914,152.421169 L115.248275,118.540807 L134.316189,120.209033 L143.945146,138.516348 C145.068594,140.36787 145.284464,140.993644 145.439047,141.546624 L145.573329,141.558372 C145.821588,141.040636 146.142843,140.461854 147.570736,138.833546 L160.836704,122.529277 L178.76323,124.097645 L152.812894,153.924922 L151.442888,169.584153 L134.254909,168.080399 Z M231.373642,139.413807 L228.046639,186.992168 L210.902266,185.793317 L212.181522,167.499102 L189.187893,165.89123 L187.908637,184.185445 L170.697031,182.981893 L174.024034,135.403532 L191.23564,136.607084 L189.984499,154.499229 L212.978128,156.1071 L214.229269,138.214956 L231.373642,139.413807 Z M255.359899,158.360728 L288.263265,153.736462 L289.871295,165.178188 L239.882206,172.203696 L233.244408,124.973314 L282.76631,118.013465 L284.374339,129.455191 L251.938161,134.013798 L252.882411,140.732487 L284.183991,136.333337 L285.661134,146.84376 L254.359555,151.24291 L255.359899,158.360728 Z M294.210195,175.709983 L295.874711,128.044495 L321.402617,128.935949 L329.110499,153.47022 C329.839061,155.781018 330.514334,157.686657 330.653103,159.506345 L330.787815,159.511049 C331.053182,157.705474 331.862084,155.784447 332.752409,153.462965 L341.811471,129.648642 L368.012937,130.563617 L366.348421,178.229106 L350.587128,177.678709 L351.50144,151.496258 C351.606937,148.475206 352.067969,144.928838 352.796081,141.459014 L352.459301,141.447253 C351.996556,143.111503 350.287951,147.622549 348.895657,150.800315 L337.587429,177.22475 L321.556712,176.664945 L312.720821,149.671494 C311.502643,145.932055 310.551545,142.269158 310.025051,139.965417 L309.755627,139.956008 C310.251644,143.132498 310.190059,146.827247 310.077528,150.049703 L309.163217,176.232154 L294.210195,175.709983 Z" id="MAYHEM" stroke="#005340" stroke-width="2"></path>
    </g>
</svg>